  0
SECTION
  2
HEADER
  9
$ACADVER
  1
AC1024
  9
$ACADMAINTVER
 70
     6
  9
$DWGCODEPAGE
  3
ANSI_1252
  9
$INSBASE
 10
0.0
 20
0.0
 30
0.0
  9
$EXTMIN
 10
1.000000000000000E+20
 20
1.000000000000000E+20
 30
1.000000000000000E+20
  9
$EXTMAX
 10
582
 20
455
 30
0
  9
$LIMMIN
 10
0.0
 20
0.0
  9
$LIMMAX
 10
12.0
 20
9.0
  9
$ORTHOMODE
 70
     0
  9
$REGENMODE
 70
     1
  9
$FILLMODE
 70
     1
  9
$QTEXTMODE
 70
     0
  9
$MIRRTEXT
 70
     1
  9
$LTSCALE
 40
1.0
  9
$ATTMODE
 70
     1
  9
$TEXTSIZE
 40
0.2
  9
$TRACEWID
 40
0.05
  9
$TEXTSTYLE
  7
Standard
  9
$CLAYER
  8
0
  9
$CELTYPE
  6
ByLayer
  9
$CECOLOR
 62
   256
  9
$CELTSCALE
 40
1.0
  9
$DISPSILH
 70
     0
  9
$DIMSCALE
 40
1.0
  9
$DIMASZ
 40
0.18
  9
$DIMEXO
 40
0.0625
  9
$DIMDLI
 40
0.38
  9
$DIMRND
 40
0.0
  9
$DIMDLE
 40
0.0
  9
$DIMEXE
 40
0.18
  9
$DIMTP
 40
0.0
  9
$DIMTM
 40
0.0
  9
$DIMTXT
 40
0.18
  9
$DIMCEN
 40
0.09
  9
$DIMTSZ
 40
0.0
  9
$DIMTOL
 70
     0
  9
$DIMLIM
 70
     0
  9
$DIMTIH
 70
     1
  9
$DIMTOH
 70
     1
  9
$DIMSE1
 70
     0
  9
$DIMSE2
 70
     0
  9
$DIMTAD
 70
     0
  9
$DIMZIN
 70
     0
  9
$DIMBLK
  1

  9
$DIMASO
 70
     1
  9
$DIMSHO
 70
     1
  9
$DIMPOST
  1

  9
$DIMAPOST
  1

  9
$DIMALT
 70
     0
  9
$DIMALTD
 70
     2
  9
$DIMALTF
 40
25.4
  9
$DIMLFAC
 40
1.0
  9
$DIMTOFL
 70
     0
  9
$DIMTVP
 40
0.0
  9
$DIMTIX
 70
     0
  9
$DIMSOXD
 70
     0
  9
$DIMSAH
 70
     0
  9
$DIMBLK1
  1

  9
$DIMBLK2
  1

  9
$DIMSTYLE
  2
Standard
  9
$DIMCLRD
 70
     0
  9
$DIMCLRE
 70
     0
  9
$DIMCLRT
 70
     0
  9
$DIMTFAC
 40
1.0
  9
$DIMGAP
 40
0.09
  9
$DIMJUST
 70
     0
  9
$DIMSD1
 70
     0
  9
$DIMSD2
 70
     0
  9
$DIMTOLJ
 70
     1
  9
$DIMTZIN
 70
     0
  9
$DIMALTZ
 70
     0
  9
$DIMALTTZ
 70
     0
  9
$DIMUPT
 70
     0
  9
$DIMDEC
 70
     4
  9
$DIMTDEC
 70
     4
  9
$DIMALTU
 70
     2
  9
$DIMALTTD
 70
     2
  9
$DIMTXSTY
  7
Standard
  9
$DIMAUNIT
 70
     0
  9
$DIMADEC
 70
     0
  9
$DIMALTRND
 40
0.0
  9
$DIMAZIN
 70
     0
  9
$DIMDSEP
 70
    46
  9
$DIMATFIT
 70
     3
  9
$DIMFRAC
 70
     0
  9
$DIMLDRBLK
  1

  9
$DIMLUNIT
 70
     2
  9
$DIMLWD
 70
    -2
  9
$DIMLWE
 70
    -2
  9
$DIMTMOVE
 70
     0
  9
$DIMFXL
 40
1.0
  9
$DIMFXLON
 70
     0
  9
$DIMJOGANG
 40
0.7853981633974483
  9
$DIMTFILL
 70
     0
  9
$DIMTFILLCLR
 70
     0
  9
$DIMARCSYM
 70
     0
  9
$DIMLTYPE
  6

  9
$DIMLTEX1
  6

  9
$DIMLTEX2
  6

  9
$DIMTXTDIRECTION
 70
     0
  9
$LUNITS
 70
     2
  9
$LUPREC
 70
     4
  9
$SKETCHINC
 40
0.1
  9
$FILLETRAD
 40
0.5
  9
$AUNITS
 70
     0
  9
$AUPREC
 70
     0
  9
$MENU
  1
.
  9
$ELEVATION
 40
0.0
  9
$PELEVATION
 40
0.0
  9
$THICKNESS
 40
0.0
  9
$LIMCHECK
 70
     0
  9
$CHAMFERA
 40
0.5
  9
$CHAMFERB
 40
0.5
  9
$CHAMFERC
 40
1.0
  9
$CHAMFERD
 40
0.0
  9
$SKPOLY
 70
     0
  9
$TDCREATE
 40
2458331.398055266
  9
$TDUCREATE
 40
2458331.314721933
  9
$TDUPDATE
 40
2458331.398055394
  9
$TDUUPDATE
 40
2458331.31472206
  9
$TDINDWG
 40
0.0000000116
  9
$TDUSRTIMER
 40
0.0000000116
  9
$USRTIMER
 70
     1
  9
$ANGBASE
 50
0.0
  9
$ANGDIR
 70
     0
  9
$PDMODE
 70
     0
  9
$PDSIZE
 40
0.0
  9
$PLINEWID
 40
0.0
  9
$SPLFRAME
 70
     0
  9
$SPLINETYPE
 70
     6
  9
$SPLINESEGS
 70
     8
  9
$HANDSEED
  5
C6
  9
$SURFTAB1
 70
     6
  9
$SURFTAB2
 70
     6
  9
$SURFTYPE
 70
     6
  9
$SURFU
 70
     6
  9
$SURFV
 70
     6
  9
$UCSBASE
  2

  9
$UCSNAME
  2

  9
$UCSORG
 10
0.0
 20
0.0
 30
0.0
  9
$UCSXDIR
 10
1.0
 20
0.0
 30
0.0
  9
$UCSYDIR
 10
0.0
 20
1.0
 30
0.0
  9
$UCSORTHOREF
  2

  9
$UCSORTHOVIEW
 70
     0
  9
$UCSORGTOP
 10
0.0
 20
0.0
 30
0.0
  9
$UCSORGBOTTOM
 10
0.0
 20
0.0
 30
0.0
  9
$UCSORGLEFT
 10
0.0
 20
0.0
 30
0.0
  9
$UCSORGRIGHT
 10
0.0
 20
0.0
 30
0.0
  9
$UCSORGFRONT
 10
0.0
 20
0.0
 30
0.0
  9
$UCSORGBACK
 10
0.0
 20
0.0
 30
0.0
  9
$PUCSBASE
  2

  9
$PUCSNAME
  2

  9
$PUCSORG
 10
0.0
 20
0.0
 30
0.0
  9
$PUCSXDIR
 10
1.0
 20
0.0
 30
0.0
  9
$PUCSYDIR
 10
0.0
 20
1.0
 30
0.0
  9
$PUCSORTHOREF
  2

  9
$PUCSORTHOVIEW
 70
     0
  9
$PUCSORGTOP
 10
0.0
 20
0.0
 30
0.0
  9
$PUCSORGBOTTOM
 10
0.0
 20
0.0
 30
0.0
  9
$PUCSORGLEFT
 10
0.0
 20
0.0
 30
0.0
  9
$PUCSORGRIGHT
 10
0.0
 20
0.0
 30
0.0
  9
$PUCSORGFRONT
 10
0.0
 20
0.0
 30
0.0
  9
$PUCSORGBACK
 10
0.0
 20
0.0
 30
0.0
  9
$USERI1
 70
     0
  9
$USERI2
 70
     0
  9
$USERI3
 70
     0
  9
$USERI4
 70
     0
  9
$USERI5
 70
     0
  9
$USERR1
 40
0.0
  9
$USERR2
 40
0.0
  9
$USERR3
 40
0.0
  9
$USERR4
 40
0.0
  9
$USERR5
 40
0.0
  9
$WORLDVIEW
 70
     1
  9
$SHADEDGE
 70
     3
  9
$SHADEDIF
 70
    70
  9
$TILEMODE
 70
     1
  9
$MAXACTVP
 70
    64
  9
$PINSBASE
 10
0.0
 20
0.0
 30
0.0
  9
$PLIMCHECK
 70
     0
  9
$PEXTMIN
 10
1.000000000000000E+20
 20
1.000000000000000E+20
 30
1.000000000000000E+20
  9
$PEXTMAX
 10
-1.000000000000000E+20
 20
-1.000000000000000E+20
 30
-1.000000000000000E+20
  9
$PLIMMIN
 10
0.0
 20
0.0
  9
$PLIMMAX
 10
12.0
 20
9.0
  9
$UNITMODE
 70
     0
  9
$VISRETAIN
 70
     1
  9
$PLINEGEN
 70
     0
  9
$PSLTSCALE
 70
     1
  9
$TREEDEPTH
 70
  3020
  9
$CMLSTYLE
  2
Standard
  9
$CMLJUST
 70
     0
  9
$CMLSCALE
 40
1.0
  9
$PROXYGRAPHICS
 70
     1
  9
$MEASUREMENT
 70
     0
  9
$CELWEIGHT
370
    -1
  9
$ENDCAPS
280
     0
  9
$JOINSTYLE
280
     0
  9
$LWDISPLAY
290
     1
  9
$INSUNITS
 70
     1
  9
$HYPERLINKBASE
  1

  9
$STYLESHEET
  1

  9
$XEDIT
290
     1
  9
$CEPSNTYPE
380
     0
  9
$PSTYLEMODE
290
     1
  9
$FINGERPRINTGUID
  2
{84A99D13-1721-4043-8635-27E350BB1B4C}
  9
$VERSIONGUID
  2
{FAEB1C32-E019-11D5-929B-00C0DF256EC4}
  9
$EXTNAMES
290
     1
  9
$PSVPSCALE
 40
0.0
  9
$OLESTARTUP
290
     0
  9
$SORTENTS
280
   127
  9
$INDEXCTL
280
     0
  9
$HIDETEXT
280
     1
  9
$XCLIPFRAME
280
     2
  9
$HALOGAP
280
     0
  9
$OBSCOLOR
 70
   257
  9
$OBSLTYPE
280
     0
  9
$INTERSECTIONDISPLAY
280
     0
  9
$INTERSECTIONCOLOR
 70
   257
  9
$DIMASSOC
280
     2
  9
$PROJECTNAME
  1

  9
$CAMERADISPLAY
290
     0
  9
$LENSLENGTH
 40
50.0
  9
$CAMERAHEIGHT
 40
0.0
  9
$STEPSPERSEC
 40
2.0
  9
$STEPSIZE
 40
6.0
  9
$3DDWFPREC
 40
2.0
  9
$PSOLWIDTH
 40
0.25
  9
$PSOLHEIGHT
 40
4.0
  9
$LOFTANG1
 40
1.570796326794897
  9
$LOFTANG2
 40
1.570796326794897
  9
$LOFTMAG1
 40
0.0
  9
$LOFTMAG2
 40
0.0
  9
$LOFTPARAM
 70
     7
  9
$LOFTNORMALS
280
     1
  9
$LATITUDE
 40
37.795
  9
$LONGITUDE
 40
-122.394
  9
$NORTHDIRECTION
 40
0.0
  9
$TIMEZONE
 70
 -8000
  9
$LIGHTGLYPHDISPLAY
280
     1
  9
$TILEMODELIGHTSYNCH
280
     1
  9
$CMATERIAL
347
3C
  9
$SOLIDHIST
280
     1
  9
$SHOWHIST
280
     1
  9
$DWFFRAME
280
     2
  9
$DGNFRAME
280
     2
  9
$REALWORLDSCALE
290
     1
  9
$INTERFERECOLOR
 62
   256
  9
$CSHADOW
280
     0
  9
$SHADOWPLANELOCATION
 40
0.0
  0
ENDSEC
  0
SECTION
  2
CLASSES
  0
CLASS
  1
ACDBDICTIONARYWDFLT
  2
AcDbDictionaryWithDefault
  3
ObjectDBX Classes
 90
        0
 91
        4
280
     0
281
     0
  0
CLASS
  1
VISUALSTYLE
  2
AcDbVisualStyle
  3
ObjectDBX Classes
 90
     4095
 91
        4
280
     0
281
     0
  0
CLASS
  1
MATERIAL
  2
AcDbMaterial
  3
ObjectDBX Classes
 90
     1153
 91
        4
280
     0
281
     0
  0
CLASS
  1
SUN
  2
AcDbSun
  3
SCENEOE
 90
     1024
 91
        4
280
     0
281
     0
  0
ENDSEC
  0
SECTION
  2
TABLES
  0
TABLE
  2
VPORT
  5
8
330
0
100
AcDbSymbolTable
 70
     1
  0
VPORT
  5
29
330
8
100
AcDbSymbolTableRecord
100
AcDbViewportTableRecord
  2
*Active
 70
     0
 10
0.0
 20
0.0
 11
1.0
 21
1.0
 12
0.0
 22
0.0
 13
0.0
 23
0.0
 14
0.5
 24
0.5
 15
0.5
 25
0.5
 16
0.0
 26
0.0
 36
1.0
 17
306.0
 27
396.0
 37
0.0
 40
792.0
 41
0.7727272727272727
 42
50.0
 43
0.0
 44
0.0
 50
0.0
 51
0.0
 71
     0
 72
   100
 73
     1
 74
     3
 75
     0
 76
     0
 77
     0
 78
     0
281
     0
 65
     1
110
0.0
120
0.0
130
0.0
111
1.0
121
0.0
131
0.0
112
0.0
122
1.0
132
0.0
 79
     0
146
0.0
 60
     3
 61
     5
292
     1
282
     1
141
0.0
142
0.0
 63
   250
361
3F
  0
ENDTAB
  0
TABLE
  2
LTYPE
  5
5
330
0
100
AcDbSymbolTable
 70
     1
  0
LTYPE
  5
14
330
5
100
AcDbSymbolTableRecord
100
AcDbLinetypeTableRecord
  2
ByBlock
 70
     0
  3

 72
    65
 73
     0
 40
0.0
  0
LTYPE
  5
15
330
5
100
AcDbSymbolTableRecord
100
AcDbLinetypeTableRecord
  2
ByLayer
 70
     0
  3

 72
    65
 73
     0
 40
0.0
  0
LTYPE
  5
16
330
5
100
AcDbSymbolTableRecord
100
AcDbLinetypeTableRecord
  2
Continuous
 70
     0
  3
Solid line
 72
    65
 73
     0
 40
0.0
  0
ENDTAB
  0
TABLE
  2
LAYER
  5
2
330
0
100
AcDbSymbolTable
 70
     2
  0
LAYER
  5
10
330
2
100
AcDbSymbolTableRecord
100
AcDbLayerTableRecord
  2
0
 70
     0
 62
     7
  6
Continuous
370
    -3
390
F
347
3E
  0
LAYER
  5
40
330
2
100
AcDbSymbolTableRecord
100
AcDbLayerTableRecord
  2
Layer0
 70
     0
 62
     7
  6
Continuous
370
    -3
390
F
347
3E
  0
ENDTAB
  0
TABLE
  2
STYLE
  5
3
330
0
100
AcDbSymbolTable
 70
     1
  0
STYLE
  5
11
330
3
100
AcDbSymbolTableRecord
100
AcDbTextStyleTableRecord
  2
Standard
 70
     0
 40
0.0
 41
1.0
 50
0.0
 71
     0
 42
0.2
  3
txt
  4

  0
ENDTAB
  0
TABLE
  2
VIEW
  5
6
330
0
100
AcDbSymbolTable
 70
     0
  0
ENDTAB
  0
TABLE
  2
UCS
  5
7
330
0
100
AcDbSymbolTable
 70
     0
  0
ENDTAB
  0
TABLE
  2
APPID
  5
9
330
0
100
AcDbSymbolTable
 70
     1
  0
APPID
  5
12
330
9
100
AcDbSymbolTableRecord
100
AcDbRegAppTableRecord
  2
ACAD
 70
     0
  0
ENDTAB
  0
TABLE
  2
DIMSTYLE
  5
A
330
0
100
AcDbSymbolTable
 70
     1
100
AcDbDimStyleTable
  0
DIMSTYLE
105
27
330
A
100
AcDbSymbolTableRecord
100
AcDbDimStyleTableRecord
  2
Standard
 70
     0
178
     0
340
11
  0
ENDTAB
  0
TABLE
  2
BLOCK_RECORD
  5
1
330
0
100
AcDbSymbolTable
 70
     2
  0
BLOCK_RECORD
  5
1F
330
1
100
AcDbSymbolTableRecord
100
AcDbBlockTableRecord
  2
*Model_Space
340
22
 70
     0
280
     1
281
     0
  0
BLOCK_RECORD
  5
1B
330
1
100
AcDbSymbolTableRecord
100
AcDbBlockTableRecord
  2
*Paper_Space
340
1E
 70
     0
280
     1
281
     0
  0
BLOCK_RECORD
  5
23
330
1
100
AcDbSymbolTableRecord
100
AcDbBlockTableRecord
  2
*Paper_Space0
340
26
 70
     0
280
     1
281
     0
  0
BLOCK_RECORD
  5
41
330
1
100
AcDbSymbolTableRecord
100
AcDbBlockTableRecord
  2
block 2
340
0
102
{BLKREFS
331
42
102
}
 70
     0
280
     1
281
     0
  0
ENDTAB
  0
ENDSEC
  0
SECTION
  2
BLOCKS
  0
BLOCK
  5
20
330
1F
100
AcDbEntity
  8
0
100
AcDbBlockBegin
  2
*Model_Space
 70
     0
 10
0.0
 20
0.0
 30
0.0
  3
*Model_Space
  1

  0
ENDBLK
  5
21
330
1F
100
AcDbEntity
  8
0
100
AcDbBlockEnd
  0
BLOCK
  5
1C
330
1B
100
AcDbEntity
 67
     1
  8
0
100
AcDbBlockBegin
  2
*Paper_Space
 70
     0
 10
0.0
 20
0.0
 30
0.0
  3
*Paper_Space
  1

  0
ENDBLK
  5
1D
330
1B
100
AcDbEntity
 67
     1
  8
0
100
AcDbBlockEnd
  0
BLOCK
  5
24
330
23
100
AcDbEntity
  8
0
100
AcDbBlockBegin
  2
*Paper_Space0
 70
     0
 10
0.0
 20
0.0
 30
0.0
  3
*Paper_Space0
  1

  0
ENDBLK
  5
25
330
23
100
AcDbEntity
  8
0
100
AcDbBlockEnd
  0
BLOCK
  5
43
330
41
100
AcDbEntity
  8
0
100
AcDbBlockBegin
  2
block 2
 70
     0
 10
0.0
 20
0.0
 30
0.0
  3
block 2
  1

  0
POLYLINE
  5
45
330
41
100
AcDbEntity
  8
Layer0
 62
   142
420
    38360
370
    25
100
AcDb2dPolyline
 66
     1
 10
0.0
 20
0.0
 30
0.0
  0
VERTEX
  5
46
330
45
100
AcDbEntity
  8
Layer0
 62
   142
420
    38360
370
    25
100
AcDbVertex
100
AcDb2dVertex
 10
597.5
 20
396.0005000000001
 30
0.0
  0
VERTEX
  5
47
330
45
100
AcDbEntity
  8
Layer0
 62
   142
420
    38360
370
    25
100
AcDbVertex
100
AcDb2dVertex
 10
586.0000126953128
 20
383.1204013671868
 30
0.0
  0
VERTEX
  5
48
330
45
100
AcDbEntity
  8
Layer0
 62
   142
420
    38360
370
    25
100
AcDbVertex
100
AcDb2dVertex
 10
577.8769765625002
 20
367.2594921875007
 30
0.0
  0
VERTEX
  5
49
330
45
100
AcDbEntity
  8
Layer0
 62
   142
420
    38360
370
    25
100
AcDbVertex
100
AcDb2dVertex
 10
572.6080302734372
 20
347.9863525390629
 30
0.0
  0
VERTEX
  5
4A
330
45
100
AcDbEntity
  8
Layer0
 62
   142
420
    38360
370
    25
100
AcDbVertex
100
AcDb2dVertex
 10
569.6703125000004
 20
324.8695625
 30
0.0
  0
VERTEX
  5
4B
330
45
100
AcDbEntity
  8
Layer0
 62
   142
420
    38360
370
    25
100
AcDbVertex
100
AcDb2dVertex
 10
568.9122701416018
 20
311.7349798583982
 30
0.0
  0
VERTEX
  5
4C
330
45
100
AcDbEntity
  8
Layer0
 62
   142
420
    38360
370
    25
100
AcDbVertex
100
AcDb2dVertex
 10
568.5409619140628
 20
297.4777021484369
 30
0.0
  0
VERTEX
  5
4D
330
45
100
AcDbEntity
  8
Layer0
 62
   142
420
    38360
370
    25
100
AcDbVertex
100
AcDb2dVertex
 10
568.3260032958988
 20
281.5570798645022
 30
0.0
  0
VERTEX
  5
4E
330
45
100
AcDbEntity
  8
Layer0
 62
   142
420
    38360
370
    25
100
AcDbVertex
100
AcDb2dVertex
 10
566.1621328125002
 20
265.3112050781256
 30
0.0
  0
VERTEX
  5
4F
330
45
100
AcDbEntity
  8
Layer0
 62
   142
420
    38360
370
    25
100
AcDbVertex
100
AcDb2dVertex
 10
561.653401977539
 20
250.6630302429203
 30
0.0
  0
VERTEX
  5
50
330
45
100
AcDbEntity
  8
Layer0
 62
   142
420
    38360
370
    25
100
AcDbVertex
100
AcDb2dVertex
 10
555.0903310546873
 20
237.6409973144528
 30
0.0
  0
VERTEX
  5
51
330
45
100
AcDbEntity
  8
Layer0
 62
   142
420
    38360
370
    25
100
AcDbVertex
100
AcDb2dVertex
 10
546.7634403076172
 20
226.2735482482913
 30
0.0
  0
VERTEX
  5
52
330
45
100
AcDbEntity
  8
Layer0
 62
   142
420
    38360
370
    25
100
AcDbVertex
100
AcDb2dVertex
 10
536.9632500000007
 20
216.5891250000004
 30
0.0
  0
VERTEX
  5
53
330
45
100
AcDbEntity
  8
Layer0
 62
   142
420
    38360
370
    25
100
AcDbVertex
100
AcDb2dVertex
 10
525.9802803955081
 20
208.6161695251467
 30
0.0
  0
VERTEX
  5
54
330
45
100
AcDbEntity
  8
Layer0
 62
   142
420
    38360
370
    25
100
AcDbVertex
100
AcDb2dVertex
 10
514.1050517578133
 20
202.3831237792965
 30
0.0
  0
VERTEX
  5
55
330
45
100
AcDbEntity
  8
Layer0
 62
   142
420
    38360
370
    25
100
AcDbVertex
100
AcDb2dVertex
 10
501.6280843505865
 20
197.9184297180182
 30
0.0
  0
VERTEX
  5
56
330
45
100
AcDbEntity
  8
Layer0
 62
   142
420
    38360
370
    25
100
AcDbVertex
100
AcDb2dVertex
 10
488.8398984374999
 20
195.2505292968744
 30
0.0
  0
VERTEX
  5
57
330
45
100
AcDbEntity
  8
Layer0
 62
   142
420
    38360
370
    25
100
AcDbVertex
100
AcDb2dVertex
 10
476.0310142822273
 20
194.4078644714355
 30
0.0
  0
VERTEX
  5
58
330
45
100
AcDbEntity
  8
Layer0
 62
   142
420
    38360
370
    25
100
AcDbVertex
100
AcDb2dVertex
 10
472.8596044864662
 20
194.4857243685728
 30
0.0
  0
VERTEX
  5
59
330
45
100
AcDbEntity
  8
Layer0
 62
   142
420
    38360
370
    25
100
AcDbVertex
100
AcDb2dVertex
 10
470.4841710200908
 20
194.6101430357103
 30
0.0
  0
VERTEX
  5
5A
330
45
100
AcDbEntity
  8
Layer0
 62
   142
420
    38360
370
    25
100
AcDbVertex
100
AcDb2dVertex
 10
466.5571003150944
 20
194.8179584846494
 30
0.0
  0
VERTEX
  5
5B
330
45
100
AcDbEntity
  8
Layer0
 62
   142
420
    38360
370
    25
100
AcDbVertex
100
AcDb2dVertex
 10
451.4609631347648
 20
195.4992727050776
 30
0.0
  0
VERTEX
  5
5C
330
45
100
AcDbEntity
  8
Layer0
 62
   142
420
    38360
370
    25
100
AcDbVertex
100
AcDb2dVertex
 10
424.1005426330557
 20
196.162713165284
 30
0.0
  0
VERTEX
  5
5D
330
45
100
AcDbEntity
  8
Layer0
 62
   142
420
    38360
370
    25
100
AcDbVertex
100
AcDb2dVertex
 10
400.2975781250007
 20
195.9360781249998
 30
0.0
  0
VERTEX
  5
5E
330
45
100
AcDbEntity
  8
Layer0
 62
   142
420
    38360
370
    25
100
AcDbVertex
100
AcDb2dVertex
 10
379.7900506286624
 20
194.8699777526854
 30
0.0
  0
VERTEX
  5
5F
330
45
100
AcDbEntity
  8
Layer0
 62
   142
420
    38360
370
    25
100
AcDbVertex
100
AcDb2dVertex
 10
362.3159411621091
 20
193.0150222167977
 30
0.0
  0
VERTEX
  5
60
330
45
100
AcDbEntity
  8
Layer0
 62
   142
420
    38360
370
    25
100
AcDbVertex
100
AcDb2dVertex
 10
347.6132307434091
 20
190.4218216857917
 30
0.0
  0
VERTEX
  5
61
330
45
100
AcDbEntity
  8
Layer0
 62
   142
420
    38360
370
    25
100
AcDbVertex
100
AcDb2dVertex
 10
335.4199003906251
 20
187.1409863281242
 30
0.0
  0
VERTEX
  5
62
330
45
100
AcDbEntity
  8
Layer0
 62
   142
420
    38360
370
    25
100
AcDbVertex
100
AcDb2dVertex
 10
325.4739311218254
 20
183.2231263122558
 30
0.0
  0
VERTEX
  5
63
330
45
100
AcDbEntity
  8
Layer0
 62
   142
420
    38360
370
    25
100
AcDbVertex
100
AcDb2dVertex
 10
317.5133039550783
 20
178.7188518066414
 30
0.0
  0
VERTEX
  5
64
330
45
100
AcDbEntity
  8
Layer0
 62
   142
420
    38360
370
    25
100
AcDbVertex
100
AcDb2dVertex
 10
311.2759999084465
 20
173.6787729797361
 30
0.0
  0
VERTEX
  5
65
330
45
100
AcDbEntity
  8
Layer0
 62
   142
420
    38360
370
    25
100
AcDbVertex
100
AcDb2dVertex
 10
306.5
 20
168.1535000000003
 30
0.0
  0
VERTEX
  5
66
330
45
100
AcDbEntity
  8
Layer0
 62
   142
420
    38360
370
    25
100
AcDbVertex
100
AcDb2dVertex
 10
301.7240000915526
 20
173.6787729797361
 30
0.0
  0
VERTEX
  5
67
330
45
100
AcDbEntity
  8
Layer0
 62
   142
420
    38360
370
    25
100
AcDbVertex
100
AcDb2dVertex
 10
295.4866960449217
 20
178.7188518066414
 30
0.0
  0
VERTEX
  5
68
330
45
100
AcDbEntity
  8
Layer0
 62
   142
420
    38360
370
    25
100
AcDbVertex
100
AcDb2dVertex
 10
287.5260688781736
 20
183.2231263122558
 30
0.0
  0
VERTEX
  5
69
330
45
100
AcDbEntity
  8
Layer0
 62
   142
420
    38360
370
    25
100
AcDbVertex
100
AcDb2dVertex
 10
277.5800996093749
 20
187.1409863281242
 30
0.0
  0
VERTEX
  5
6A
330
45
100
AcDbEntity
  8
Layer0
 62
   142
420
    38360
370
    25
100
AcDbVertex
100
AcDb2dVertex
 10
265.3867692565918
 20
190.4218216857917
 30
0.0
  0
VERTEX
  5
6B
330
45
100
AcDbEntity
  8
Layer0
 62
   142
420
    38360
370
    25
100
AcDbVertex
100
AcDb2dVertex
 10
250.6840588378909
 20
193.0150222167977
 30
0.0
  0
VERTEX
  5
6C
330
45
100
AcDbEntity
  8
Layer0
 62
   142
420
    38360
370
    25
100
AcDbVertex
100
AcDb2dVertex
 10
233.2099493713376
 20
194.8699777526854
 30
0.0
  0
VERTEX
  5
6D
330
45
100
AcDbEntity
  8
Layer0
 62
   142
420
    38360
370
    25
100
AcDbVertex
100
AcDb2dVertex
 10
212.7024218750003
 20
195.9360781249998
 30
0.0
  0
VERTEX
  5
6E
330
45
100
AcDbEntity
  8
Layer0
 62
   142
420
    38360
370
    25
100
AcDbVertex
100
AcDb2dVertex
 10
188.8994573669434
 20
196.162713165284
 30
0.0
  0
VERTEX
  5
6F
330
45
100
AcDbEntity
  8
Layer0
 62
   142
420
    38360
370
    25
100
AcDbVertex
100
AcDb2dVertex
 10
161.5390368652343
 20
195.4992727050776
 30
0.0
  0
VERTEX
  5
70
330
45
100
AcDbEntity
  8
Layer0
 62
   142
420
    38360
370
    25
100
AcDbVertex
100
AcDb2dVertex
 10
146.4428996849056
 20
194.8179584846494
 30
0.0
  0
VERTEX
  5
71
330
45
100
AcDbEntity
  8
Layer0
 62
   142
420
    38360
370
    25
100
AcDbVertex
100
AcDb2dVertex
 10
142.5158289799092
 20
194.6101430357103
 30
0.0
  0
VERTEX
  5
72
330
45
100
AcDbEntity
  8
Layer0
 62
   142
420
    38360
370
    25
100
AcDbVertex
100
AcDb2dVertex
 10
140.1403724408146
 20
194.4857243685728
 30
0.0
  0
VERTEX
  5
73
330
45
100
AcDbEntity
  8
Layer0
 62
   142
420
    38360
370
    25
100
AcDbVertex
100
AcDb2dVertex
 10
136.9688977355954
 20
194.4078644714355
 30
0.0
  0
VERTEX
  5
74
330
45
100
AcDbEntity
  8
Layer0
 62
   142
420
    38360
370
    25
100
AcDbVertex
100
AcDb2dVertex
 10
124.1598144531254
 20
195.2505292968744
 30
0.0
  0
VERTEX
  5
75
330
45
100
AcDbEntity
  8
Layer0
 62
   142
420
    38360
370
    25
100
AcDbVertex
100
AcDb2dVertex
 10
111.3715151062015
 20
197.9184297180182
 30
0.0
  0
VERTEX
  5
76
330
45
100
AcDbEntity
  8
Layer0
 62
   142
420
    38360
370
    25
100
AcDbVertex
100
AcDb2dVertex
 10
98.89450512695294
 20
202.3831237792965
 30
0.0
  0
VERTEX
  5
77
330
45
100
AcDbEntity
  8
Layer0
 62
   142
420
    38360
370
    25
100
AcDbVertex
100
AcDb2dVertex
 10
87.0192899475096
 20
208.6161695251467
 30
0.0
  0
VERTEX
  5
78
330
45
100
AcDbEntity
  8
Layer0
 62
   142
420
    38360
370
    25
100
AcDbVertex
100
AcDb2dVertex
 10
76.03637499999968
 20
216.5891250000004
 30
0.0
  0
VERTEX
  5
79
330
45
100
AcDbEntity
  8
Layer0
 62
   142
420
    38360
370
    25
100
AcDbVertex
100
AcDb2dVertex
 10
66.23626571655313
 20
226.2735482482913
 30
0.0
  0
VERTEX
  5
7A
330
45
100
AcDbEntity
  8
Layer0
 62
   142
420
    38360
370
    25
100
AcDbVertex
100
AcDb2dVertex
 10
57.90946752929722
 20
237.6409973144528
 30
0.0
  0
VERTEX
  5
7B
330
45
100
AcDbEntity
  8
Layer0
 62
   142
420
    38360
370
    25
100
AcDbVertex
100
AcDb2dVertex
 10
51.34648587036099
 20
250.6630302429203
 30
0.0
  0
VERTEX
  5
7C
330
45
100
AcDbEntity
  8
Layer0
 62
   142
420
    38360
370
    25
100
AcDbVertex
100
AcDb2dVertex
 10
46.83782617187535
 20
265.3112050781256
 30
0.0
  0
VERTEX
  5
7D
330
45
100
AcDbEntity
  8
Layer0
 62
   142
420
    38360
370
    25
100
AcDbVertex
100
AcDb2dVertex
 10
44.67399386596662
 20
281.5570798645022
 30
0.0
  0
VERTEX
  5
7E
330
45
100
AcDbEntity
  8
Layer0
 62
   142
420
    38360
370
    25
100
AcDbVertex
100
AcDb2dVertex
 10
44.45903808593721
 20
297.4777021484369
 30
0.0
  0
VERTEX
  5
7F
330
45
100
AcDbEntity
  8
Layer0
 62
   142
420
    38360
370
    25
100
AcDbVertex
100
AcDb2dVertex
 10
44.08772985839823
 20
311.7349798583982
 30
0.0
  0
VERTEX
  5
80
330
45
100
AcDbEntity
  8
Layer0
 62
   142
420
    38360
370
    25
100
AcDbVertex
100
AcDb2dVertex
 10
43.32968749999964
 20
324.8695625
 30
0.0
  0
VERTEX
  5
81
330
45
100
AcDbEntity
  8
Layer0
 62
   142
420
    38360
370
    25
100
AcDbVertex
100
AcDb2dVertex
 10
40.39196972656282
 20
347.9863525390629
 30
0.0
  0
VERTEX
  5
82
330
45
100
AcDbEntity
  8
Layer0
 62
   142
420
    38360
370
    25
100
AcDbVertex
100
AcDb2dVertex
 10
35.1230234374998
 20
367.2594921875007
 30
0.0
  0
VERTEX
  5
83
330
45
100
AcDbEntity
  8
Layer0
 62
   142
420
    38360
370
    25
100
AcDbVertex
100
AcDb2dVertex
 10
26.99998730468724
 20
383.1204013671868
 30
0.0
  0
VERTEX
  5
84
330
45
100
AcDbEntity
  8
Layer0
 62
   142
420
    38360
370
    25
100
AcDbVertex
100
AcDb2dVertex
 10
15.5
 20
396.0005000000001
 30
0.0
  0
VERTEX
  5
85
330
45
100
AcDbEntity
  8
Layer0
 62
   142
420
    38360
370
    25
100
AcDbVertex
100
AcDb2dVertex
 10
26.99998730468724
 20
408.8805063476566
 30
0.0
  0
VERTEX
  5
86
330
45
100
AcDbEntity
  8
Layer0
 62
   142
420
    38360
370
    25
100
AcDbVertex
100
AcDb2dVertex
 10
35.1230234374998
 20
424.7411914062504
 30
0.0
  0
VERTEX
  5
87
330
45
100
AcDbEntity
  8
Layer0
 62
   142
420
    38360
370
    25
100
AcDbVertex
100
AcDb2dVertex
 10
40.39196972656282
 20
444.0140541992187
 30
0.0
  0
VERTEX
  5
88
330
45
100
AcDbEntity
  8
Layer0
 62
   142
420
    38360
370
    25
100
AcDbVertex
100
AcDb2dVertex
 10
43.32968749999964
 20
467.1305937500001
 30
0.0
  0
VERTEX
  5
89
330
45
100
AcDbEntity
  8
Layer0
 62
   142
420
    38360
370
    25
100
AcDbVertex
100
AcDb2dVertex
 10
44.08772985839823
 20
480.2650857543949
 30
0.0
  0
VERTEX
  5
8A
330
45
100
AcDbEntity
  8
Layer0
 62
   142
420
    38360
370
    25
100
AcDbVertex
100
AcDb2dVertex
 10
44.45903808593721
 20
494.5223090820309
 30
0.0
  0
VERTEX
  5
8B
330
45
100
AcDbEntity
  8
Layer0
 62
   142
420
    38360
370
    25
100
AcDbVertex
100
AcDb2dVertex
 10
44.67399386596662
 20
510.4429230041505
 30
0.0
  0
VERTEX
  5
8C
330
45
100
AcDbEntity
  8
Layer0
 62
   142
420
    38360
370
    25
100
AcDbVertex
100
AcDb2dVertex
 10
46.83782617187535
 20
526.6888378906251
 30
0.0
  0
VERTEX
  5
8D
330
45
100
AcDbEntity
  8
Layer0
 62
   142
420
    38360
370
    25
100
AcDbVertex
100
AcDb2dVertex
 10
51.34648587036099
 20
541.3370923767088
 30
0.0
  0
VERTEX
  5
8E
330
45
100
AcDbEntity
  8
Layer0
 62
   142
420
    38360
370
    25
100
AcDbVertex
100
AcDb2dVertex
 10
57.90946752929722
 20
554.3592346191408
 30
0.0
  0
VERTEX
  5
8F
330
45
100
AcDbEntity
  8
Layer0
 62
   142
420
    38360
370
    25
100
AcDbVertex
100
AcDb2dVertex
 10
66.23626571655313
 20
565.7268127746584
 30
0.0
  0
VERTEX
  5
90
330
45
100
AcDbEntity
  8
Layer0
 62
   142
420
    38360
370
    25
100
AcDbVertex
100
AcDb2dVertex
 10
76.03637499999968
 20
575.4113749999997
 30
0.0
  0
VERTEX
  5
91
330
45
100
AcDbEntity
  8
Layer0
 62
   142
420
    38360
370
    25
100
AcDbVertex
100
AcDb2dVertex
 10
87.0192899475096
 20
583.3844694519048
 30
0.0
  0
VERTEX
  5
92
330
45
100
AcDbEntity
  8
Layer0
 62
   142
420
    38360
370
    25
100
AcDbVertex
100
AcDb2dVertex
 10
98.89450512695294
 20
589.6176442871092
 30
0.0
  0
VERTEX
  5
93
330
45
100
AcDbEntity
  8
Layer0
 62
   142
420
    38360
370
    25
100
AcDbVertex
100
AcDb2dVertex
 10
111.3715151062015
 20
594.0824476623538
 30
0.0
  0
VERTEX
  5
94
330
45
100
AcDbEntity
  8
Layer0
 62
   142
420
    38360
370
    25
100
AcDbVertex
100
AcDb2dVertex
 10
124.1598144531254
 20
596.7504277343751
 30
0.0
  0
VERTEX
  5
95
330
45
100
AcDbEntity
  8
Layer0
 62
   142
420
    38360
370
    25
100
AcDbVertex
100
AcDb2dVertex
 10
136.9688977355954
 20
597.593132659912
 30
0.0
  0
VERTEX
  5
96
330
45
100
AcDbEntity
  8
Layer0
 62
   142
420
    38360
370
    25
100
AcDbVertex
100
AcDb2dVertex
 10
140.1403724408146
 20
597.5152754492756
 30
0.0
  0
VERTEX
  5
97
330
45
100
AcDbEntity
  8
Layer0
 62
   142
420
    38360
370
    25
100
AcDbVertex
100
AcDb2dVertex
 10
142.5158289799092
 20
597.3908569642308
 30
0.0
  0
VERTEX
  5
98
330
45
100
AcDbEntity
  8
Layer0
 62
   142
420
    38360
370
    25
100
AcDbVertex
100
AcDb2dVertex
 10
146.4428996849056
 20
597.1830415115355
 30
0.0
  0
VERTEX
  5
99
330
45
100
AcDbEntity
  8
Layer0
 62
   142
420
    38360
370
    25
100
AcDbVertex
100
AcDb2dVertex
 10
161.5390368652343
 20
596.5017270507815
 30
0.0
  0
VERTEX
  5
9A
330
45
100
AcDbEntity
  8
Layer0
 62
   142
420
    38360
370
    25
100
AcDbVertex
100
AcDb2dVertex
 10
188.8994573669434
 20
595.8382830200198
 30
0.0
  0
VERTEX
  5
9B
330
45
100
AcDbEntity
  8
Layer0
 62
   142
420
    38360
370
    25
100
AcDbVertex
100
AcDb2dVertex
 10
212.7024218750003
 20
596.0649062499997
 30
0.0
  0
VERTEX
  5
9C
330
45
100
AcDbEntity
  8
Layer0
 62
   142
420
    38360
370
    25
100
AcDbVertex
100
AcDb2dVertex
 10
233.2099493713376
 20
597.1309816284183
 30
0.0
  0
VERTEX
  5
9D
330
45
100
AcDbEntity
  8
Layer0
 62
   142
420
    38360
370
    25
100
AcDbVertex
100
AcDb2dVertex
 10
250.6840588378909
 20
598.9858940429685
 30
0.0
  0
VERTEX
  5
9E
330
45
100
AcDbEntity
  8
Layer0
 62
   142
420
    38360
370
    25
100
AcDbVertex
100
AcDb2dVertex
 10
265.3867692565918
 20
601.5790283813476
 30
0.0
  0
VERTEX
  5
9F
330
45
100
AcDbEntity
  8
Layer0
 62
   142
420
    38360
370
    25
100
AcDbVertex
100
AcDb2dVertex
 10
277.5800996093749
 20
604.8597695312501
 30
0.0
  0
VERTEX
  5
A0
330
45
100
AcDbEntity
  8
Layer0
 62
   142
420
    38360
370
    25
100
AcDbVertex
100
AcDb2dVertex
 10
287.5260688781736
 20
608.7775023803715
 30
0.0
  0
VERTEX
  5
A1
330
45
100
AcDbEntity
  8
Layer0
 62
   142
420
    38360
370
    25
100
AcDbVertex
100
AcDb2dVertex
 10
295.4866960449217
 20
613.2816118164064
 30
0.0
  0
VERTEX
  5
A2
330
45
100
AcDbEntity
  8
Layer0
 62
   142
420
    38360
370
    25
100
AcDbVertex
100
AcDb2dVertex
 10
301.7240000915526
 20
618.3214827270513
 30
0.0
  0
VERTEX
  5
A3
330
45
100
AcDbEntity
  8
Layer0
 62
   142
420
    38360
370
    25
100
AcDbVertex
100
AcDb2dVertex
 10
306.5
 20
623.8464999999997
 30
0.0
  0
VERTEX
  5
A4
330
45
100
AcDbEntity
  8
Layer0
 62
   142
420
    38360
370
    25
100
AcDbVertex
100
AcDb2dVertex
 10
311.2759999084465
 20
618.3214827270513
 30
0.0
  0
VERTEX
  5
A5
330
45
100
AcDbEntity
  8
Layer0
 62
   142
420
    38360
370
    25
100
AcDbVertex
100
AcDb2dVertex
 10
317.5133039550783
 20
613.2816118164064
 30
0.0
  0
VERTEX
  5
A6
330
45
100
AcDbEntity
  8
Layer0
 62
   142
420
    38360
370
    25
100
AcDbVertex
100
AcDb2dVertex
 10
325.4739311218254
 20
608.7775023803715
 30
0.0
  0
VERTEX
  5
A7
330
45
100
AcDbEntity
  8
Layer0
 62
   142
420
    38360
370
    25
100
AcDbVertex
100
AcDb2dVertex
 10
335.4199003906251
 20
604.8597695312501
 30
0.0
  0
VERTEX
  5
A8
330
45
100
AcDbEntity
  8
Layer0
 62
   142
420
    38360
370
    25
100
AcDbVertex
100
AcDb2dVertex
 10
347.6132307434091
 20
601.5790283813476
 30
0.0
  0
VERTEX
  5
A9
330
45
100
AcDbEntity
  8
Layer0
 62
   142
420
    38360
370
    25
100
AcDbVertex
100
AcDb2dVertex
 10
362.3159411621091
 20
598.9858940429685
 30
0.0
  0
VERTEX
  5
AA
330
45
100
AcDbEntity
  8
Layer0
 62
   142
420
    38360
370
    25
100
AcDbVertex
100
AcDb2dVertex
 10
379.7900506286624
 20
597.1309816284183
 30
0.0
  0
VERTEX
  5
AB
330
45
100
AcDbEntity
  8
Layer0
 62
   142
420
    38360
370
    25
100
AcDbVertex
100
AcDb2dVertex
 10
400.2975781250007
 20
596.0649062499997
 30
0.0
  0
VERTEX
  5
AC
330
45
100
AcDbEntity
  8
Layer0
 62
   142
420
    38360
370
    25
100
AcDbVertex
100
AcDb2dVertex
 10
424.1005426330557
 20
595.8382830200198
 30
0.0
  0
VERTEX
  5
AD
330
45
100
AcDbEntity
  8
Layer0
 62
   142
420
    38360
370
    25
100
AcDbVertex
100
AcDb2dVertex
 10
451.4609631347648
 20
596.5017270507815
 30
0.0
  0
VERTEX
  5
AE
330
45
100
AcDbEntity
  8
Layer0
 62
   142
420
    38360
370
    25
100
AcDbVertex
100
AcDb2dVertex
 10
466.5571003150944
 20
597.1830415115355
 30
0.0
  0
VERTEX
  5
AF
330
45
100
AcDbEntity
  8
Layer0
 62
   142
420
    38360
370
    25
100
AcDbVertex
100
AcDb2dVertex
 10
470.4841710200908
 20
597.3908569642308
 30
0.0
  0
VERTEX
  5
B0
330
45
100
AcDbEntity
  8
Layer0
 62
   142
420
    38360
370
    25
100
AcDbVertex
100
AcDb2dVertex
 10
472.8596044864662
 20
597.5152754492756
 30
0.0
  0
VERTEX
  5
B1
330
45
100
AcDbEntity
  8
Layer0
 62
   142
420
    38360
370
    25
100
AcDbVertex
100
AcDb2dVertex
 10
476.0310142822273
 20
597.593132659912
 30
0.0
  0
VERTEX
  5
B2
330
45
100
AcDbEntity
  8
Layer0
 62
   142
420
    38360
370
    25
100
AcDbVertex
100
AcDb2dVertex
 10
488.8398984374999
 20
596.7504277343751
 30
0.0
  0
VERTEX
  5
B3
330
45
100
AcDbEntity
  8
Layer0
 62
   142
420
    38360
370
    25
100
AcDbVertex
100
AcDb2dVertex
 10
501.6280843505865
 20
594.0824476623538
 30
0.0
  0
VERTEX
  5
B4
330
45
100
AcDbEntity
  8
Layer0
 62
   142
420
    38360
370
    25
100
AcDbVertex
100
AcDb2dVertex
 10
514.1050517578133
 20
589.6176442871092
 30
0.0
  0
VERTEX
  5
B5
330
45
100
AcDbEntity
  8
Layer0
 62
   142
420
    38360
370
    25
100
AcDbVertex
100
AcDb2dVertex
 10
525.9802803955081
 20
583.3844694519048
 30
0.0
  0
VERTEX
  5
B6
330
45
100
AcDbEntity
  8
Layer0
 62
   142
420
    38360
370
    25
100
AcDbVertex
100
AcDb2dVertex
 10
536.9632500000007
 20
575.4113749999997
 30
0.0
  0
VERTEX
  5
B7
330
45
100
AcDbEntity
  8
Layer0
 62
   142
420
    38360
370
    25
100
AcDbVertex
100
AcDb2dVertex
 10
546.7634403076172
 20
565.7268127746584
 30
0.0
  0
VERTEX
  5
B8
330
45
100
AcDbEntity
  8
Layer0
 62
   142
420
    38360
370
    25
100
AcDbVertex
100
AcDb2dVertex
 10
555.0903310546873
 20
554.3592346191408
 30
0.0
  0
VERTEX
  5
B9
330
45
100
AcDbEntity
  8
Layer0
 62
   142
420
    38360
370
    25
100
AcDbVertex
100
AcDb2dVertex
 10
561.653401977539
 20
541.3370923767088
 30
0.0
  0
VERTEX
  5
BA
330
45
100
AcDbEntity
  8
Layer0
 62
   142
420
    38360
370
    25
100
AcDbVertex
100
AcDb2dVertex
 10
566.1621328125002
 20
526.6888378906251
 30
0.0
  0
VERTEX
  5
BB
330
45
100
AcDbEntity
  8
Layer0
 62
   142
420
    38360
370
    25
100
AcDbVertex
100
AcDb2dVertex
 10
568.3260032958988
 20
510.4429230041505
 30
0.0
  0
VERTEX
  5
BC
330
45
100
AcDbEntity
  8
Layer0
 62
   142
420
    38360
370
    25
100
AcDbVertex
100
AcDb2dVertex
 10
568.5409619140628
 20
494.5223090820309
 30
0.0
  0
VERTEX
  5
BD
330
45
100
AcDbEntity
  8
Layer0
 62
   142
420
    38360
370
    25
100
AcDbVertex
100
AcDb2dVertex
 10
568.9122701416018
 20
480.2650857543949
 30
0.0
  0
VERTEX
  5
BE
330
45
100
AcDbEntity
  8
Layer0
 62
   142
420
    38360
370
    25
100
AcDbVertex
100
AcDb2dVertex
 10
569.6703125000004
 20
467.1305937500001
 30
0.0
  0
VERTEX
  5
BF
330
45
100
AcDbEntity
  8
Layer0
 62
   142
420
    38360
370
    25
100
AcDbVertex
100
AcDb2dVertex
 10
572.6080302734372
 20
444.0140541992187
 30
0.0
  0
VERTEX
  5
C0
330
45
100
AcDbEntity
  8
Layer0
 62
   142
420
    38360
370
    25
100
AcDbVertex
100
AcDb2dVertex
 10
577.8769765625002
 20
424.7411914062504
 30
0.0
  0
VERTEX
  5
C1
330
45
100
AcDbEntity
  8
Layer0
 62
   142
420
    38360
370
    25
100
AcDbVertex
100
AcDb2dVertex
 10
586.0000126953128
 20
408.8805063476566
 30
0.0
  0
VERTEX
  5
C2
330
45
100
AcDbEntity
  8
Layer0
 62
   142
420
    38360
370
    25
100
AcDbVertex
100
AcDb2dVertex
 10
597.5
 20
396.0005000000001
 30
0.0
  0
SEQEND
  5
C3
330
45
100
AcDbEntity
  8
Layer0
 62
   142
420
    38360
370
    25
  0
ENDBLK
  5
44
330
41
100
AcDbEntity
  8
0
100
AcDbBlockEnd
  0
ENDSEC
  0
SECTION
  2
ENTITIES
  0
INSERT
  5
42
330
1F
100
AcDbEntity
  8
Layer0
100
AcDbBlockReference
  2
block 2
 10
0.0
 20
0.0
 30
0.0
  0
ENDSEC
  0
SECTION
  2
OBJECTS
  0
DICTIONARY
  5
C
330
0
100
AcDbDictionary
281
     1
  3
ACAD_GROUP
350
D
  3
ACAD_LAYOUT
350
1A
  3
ACAD_MATERIAL
350
3B
  3
ACAD_MLEADERSTYLE
350
C5
  3
ACAD_MLINESTYLE
350
17
  3
ACAD_PLOTSETTINGS
350
19
  3
ACAD_PLOTSTYLENAME
350
E
  3
ACAD_TABLESTYLE
350
C4
  3
ACAD_VISUALSTYLE
350
2A
  0
SUN
  5
3F
330
29
100
AcDbSun
 90
        1
290
     0
 63
     7
421
 16777215
 40
1.0
291
     1
 91
  2455826
 92
 54000000
292
     0
 70
     2
 71
   256
280
     1
  0
DICTIONARY
  5
D
102
{ACAD_REACTORS
330
C
102
}
330
C
100
AcDbDictionary
281
     1
  0
DICTIONARY
  5
1A
102
{ACAD_REACTORS
330
C
102
}
330
C
100
AcDbDictionary
281
     1
  3
Layout1
350
1E
  3
Layout2
350
26
  3
Model
350
22
  0
DICTIONARY
  5
3B
102
{ACAD_REACTORS
330
C
102
}
330
C
100
AcDbDictionary
281
     1
  3
ByBlock
350
3D
  3
ByLayer
350
3C
  3
Global
350
3E
  0
DICTIONARY
  5
C5
102
{ACAD_REACTORS
330
C
102
}
330
C
100
AcDbDictionary
281
     1
  0
DICTIONARY
  5
17
102
{ACAD_REACTORS
330
C
102
}
330
C
100
AcDbDictionary
281
     1
  3
Standard
350
18
  0
DICTIONARY
  5
19
102
{ACAD_REACTORS
330
C
102
}
330
C
100
AcDbDictionary
281
     1
  0
ACDBDICTIONARYWDFLT
  5
E
102
{ACAD_REACTORS
330
C
102
}
330
C
100
AcDbDictionary
281
     1
  3
Normal
350
F
100
AcDbDictionaryWithDefault
340
F
  0
DICTIONARY
  5
C4
102
{ACAD_REACTORS
330
C
102
}
330
C
100
AcDbDictionary
281
     1
  0
DICTIONARY
  5
2A
102
{ACAD_REACTORS
330
C
102
}
330
C
100
AcDbDictionary
281
     1
  3
2dWireframe
350
2F
  3
3D Hidden
350
31
  3
3dWireframe
350
30
  3
Basic
350
32
  3
Brighten
350
36
  3
ColorChange
350
3A
  3
Conceptual
350
34
  3
Dim
350
35
  3
Facepattern
350
39
  3
Flat
350
2B
  3
FlatWithEdges
350
2C
  3
Gouraud
350
2D
  3
GouraudWithEdges
350
2E
  3
Linepattern
350
38
  3
Realistic
350
33
  3
Thicken
350
37
  0
LAYOUT
  5
1E
102
{ACAD_REACTORS
330
1A
102
}
330
1A
100
AcDbPlotSettings
  1

  2
none_device
  4

  6

 40
0.0
 41
0.0
 42
0.0
 43
0.0
 44
0.0
 45
0.0
 46
0.0
 47
0.0
 48
0.0
 49
0.0
140
0.0
141
0.0
142
1.0
143
1.0
 70
   688
 72
     0
 73
     0
 74
     5
  7

 75
    16
 76
     0
 77
     2
 78
   300
147
1.0
148
0.0
149
0.0
100
AcDbLayout
  1
Layout1
 70
     1
 71
     1
 10
0.0
 20
0.0
 11
12.0
 21
9.0
 12
0.0
 22
0.0
 32
0.0
 14
1.000000000000000E+20
 24
1.000000000000000E+20
 34
1.000000000000000E+20
 15
-1.000000000000000E+20
 25
-1.000000000000000E+20
 35
-1.000000000000000E+20
146
0.0
 13
0.0
 23
0.0
 33
0.0
 16
1.0
 26
0.0
 36
0.0
 17
0.0
 27
1.0
 37
0.0
 76
     0
330
1B
  0
LAYOUT
  5
26
102
{ACAD_REACTORS
330
1A
102
}
330
1A
100
AcDbPlotSettings
  1

  2
none_device
  4

  6

 40
0.0
 41
0.0
 42
0.0
 43
0.0
 44
0.0
 45
0.0
 46
0.0
 47
0.0
 48
0.0
 49
0.0
140
0.0
141
0.0
142
1.0
143
1.0
 70
   688
 72
     0
 73
     0
 74
     5
  7

 75
    16
 76
     0
 77
     2
 78
   300
147
1.0
148
0.0
149
0.0
100
AcDbLayout
  1
Layout2
 70
     1
 71
     2
 10
0.0
 20
0.0
 11
0.0
 21
0.0
 12
0.0
 22
0.0
 32
0.0
 14
0.0
 24
0.0
 34
0.0
 15
0.0
 25
0.0
 35
0.0
146
0.0
 13
0.0
 23
0.0
 33
0.0
 16
1.0
 26
0.0
 36
0.0
 17
0.0
 27
1.0
 37
0.0
 76
     0
330
23
  0
LAYOUT
  5
22
102
{ACAD_REACTORS
330
1A
102
}
330
1A
100
AcDbPlotSettings
  1

  2
none_device
  4

  6

 40
0.0
 41
0.0
 42
0.0
 43
0.0
 44
0.0
 45
0.0
 46
0.0
 47
0.0
 48
0.0
 49
0.0
140
0.0
141
0.0
142
1.0
143
1.0
 70
  1712
 72
     0
 73
     0
 74
     0
  7

 75
     0
 76
     0
 77
     2
 78
   300
147
1.0
148
0.0
149
0.0
100
AcDbLayout
  1
Model
 70
     1
 71
     0
 10
0.0
 20
0.0
 11
12.0
 21
9.0
 12
0.0
 22
0.0
 32
0.0
 14
1.000000000000000E+20
 24
1.000000000000000E+20
 34
1.000000000000000E+20
 15
-1.000000000000000E+20
 25
-1.000000000000000E+20
 35
-1.000000000000000E+20
146
0.0
 13
0.0
 23
0.0
 33
0.0
 16
1.0
 26
0.0
 36
0.0
 17
0.0
 27
1.0
 37
0.0
 76
     0
330
1F
331
29
  0
MATERIAL
  5
3D
102
{ACAD_REACTORS
330
3B
102
}
330
3B
100
AcDbMaterial
  1
ByBlock
 72
     1
 94
      127
  0
MATERIAL
  5
3C
102
{ACAD_REACTORS
330
3B
102
}
330
3B
100
AcDbMaterial
  1
ByLayer
 72
     1
 94
      127
  0
MATERIAL
  5
3E
102
{ACAD_REACTORS
330
3B
102
}
330
3B
100
AcDbMaterial
  1
Global
 72
     1
 94
      127
  0
MLINESTYLE
  5
18
102
{ACAD_REACTORS
330
17
102
}
330
17
100
AcDbMlineStyle
  2
Standard
 70
     0
  3

 62
   256
 51
90.0
 52
90.0
 71
     2
 49
0.5
 62
   256
  6
BYLAYER
 49
-0.5
 62
   256
  6
BYLAYER
  0
ACDBPLACEHOLDER
  5
F
102
{ACAD_REACTORS
330
E
102
}
330
E
  0
VISUALSTYLE
  5
2F
102
{ACAD_REACTORS
330
2A
102
}
330
2A
100
AcDbVisualStyle
  2
2dWireframe
 70
     4
177
     2
291
     0
 71
     0
176
     1
 72
     2
176
     1
 73
     0
176
     1
 90
        0
176
     1
 40
-0.6
176
     1
 41
-30.0
176
     1
 62
     5
 63
     7
421
 16777215
176
     1
 74
     1
176
     1
 91
        4
176
     1
 64
     7
176
     1
 65
   257
176
     1
 75
     1
176
     1
175
     1
176
     1
 42
1.0
176
     1
 92
        0
176
     1
 66
   257
176
     1
 43
1.0
176
     1
 76
     1
176
     1
 77
     6
176
     1
 78
     2
176
     1
 67
     7
176
     1
 79
     5
176
     1
170
     0
176
     1
171
     0
176
     1
290
     0
176
     1
 93
        1
176
     1
 44
0.0
176
     1
173
     0
176
     1
  0
VISUALSTYLE
  5
31
102
{ACAD_REACTORS
330
2A
102
}
330
2A
100
AcDbVisualStyle
  2
3D Hidden
 70
     6
177
     2
291
     0
 71
     1
176
     1
 72
     2
176
     1
 73
     2
176
     1
 90
        0
176
     1
 40
-0.6
176
     1
 41
-30.0
176
     1
 62
     5
 63
     7
421
 16777215
176
     1
 74
     2
176
     1
 91
        2
176
     1
 64
     7
176
     1
 65
   257
176
     1
 75
     2
176
     1
175
     1
176
     1
 42
40.0
176
     1
 92
        0
176
     1
 66
   257
176
     1
 43
1.0
176
     1
 76
     1
176
     1
 77
     6
176
     1
 78
     2
176
     1
 67
     7
176
     1
 79
     3
176
     1
170
     0
176
     1
171
     0
176
     1
290
     0
176
     1
 93
        1
176
     1
 44
0.0
176
     1
173
     0
176
     1
  0
VISUALSTYLE
  5
30
102
{ACAD_REACTORS
330
2A
102
}
330
2A
100
AcDbVisualStyle
  2
3dWireframe
 70
     5
177
     2
291
     0
 71
     0
176
     1
 72
     2
176
     1
 73
     0
176
     1
 90
        0
176
     1
 40
-0.6
176
     1
 41
-30.0
176
     1
 62
     5
 63
     7
421
 16777215
176
     1
 74
     1
176
     1
 91
        4
176
     1
 64
     7
176
     1
 65
   257
176
     1
 75
     1
176
     1
175
     1
176
     1
 42
1.0
176
     1
 92
        0
176
     1
 66
   257
176
     1
 43
1.0
176
     1
 76
     1
176
     1
 77
     6
176
     1
 78
     2
176
     1
 67
     7
176
     1
 79
     5
176
     1
170
     0
176
     1
171
     0
176
     1
290
     0
176
     1
 93
        1
176
     1
 44
0.0
176
     1
173
     0
176
     1
  0
VISUALSTYLE
  5
32
102
{ACAD_REACTORS
330
2A
102
}
330
2A
100
AcDbVisualStyle
  2
Basic
 70
     7
177
     2
291
     1
 71
     1
176
     1
 72
     0
176
     1
 73
     1
176
     1
 90
        0
176
     1
 40
-0.6
176
     1
 41
-30.0
176
     1
 62
     5
 63
     7
421
 16777215
176
     1
 74
     0
176
     1
 91
        4
176
     1
 64
     7
176
     1
 65
   257
176
     1
 75
     1
176
     1
175
     1
176
     1
 42
1.0
176
     1
 92
        8
176
     1
 66
     7
176
     1
 43
1.0
176
     1
 76
     1
176
     1
 77
     6
176
     1
 78
     2
176
     1
 67
     7
176
     1
 79
     5
176
     1
170
     0
176
     1
171
     0
176
     1
290
     0
176
     1
 93
        1
176
     1
 44
0.0
176
     1
173
     0
176
     1
  0
VISUALSTYLE
  5
36
102
{ACAD_REACTORS
330
2A
102
}
330
2A
100
AcDbVisualStyle
  2
Brighten
 70
    12
177
     2
291
     1
 71
     2
176
     1
 72
     2
176
     1
 73
     0
176
     1
 90
        0
176
     1
 40
-0.6
176
     1
 41
-30.0
176
     1
 62
     5
 63
     7
421
 16777215
176
     1
 74
     1
176
     1
 91
        4
176
     1
 64
     7
176
     1
 65
   257
176
     1
 75
     1
176
     1
175
     1
176
     1
 42
1.0
176
     1
 92
        8
176
     1
 66
     7
176
     1
 43
1.0
176
     1
 76
     1
176
     1
 77
     6
176
     1
 78
     2
176
     1
 67
     7
176
     1
 79
     5
176
     1
170
     0
176
     1
171
     0
176
     1
290
     0
176
     1
 93
        1
176
     1
 44
50.0
176
     1
173
     0
176
     1
  0
VISUALSTYLE
  5
3A
102
{ACAD_REACTORS
330
2A
102
}
330
2A
100
AcDbVisualStyle
  2
ColorChange
 70
    16
177
     2
291
     1
 71
     2
176
     1
 72
     2
176
     1
 73
     3
176
     1
 90
        0
176
     1
 40
-0.6
176
     1
 41
-30.0
176
     1
 62
     5
 63
     8
421
  8421504
176
     1
 74
     1
176
     1
 91
        4
176
     1
 64
     7
176
     1
 65
   257
176
     1
 75
     1
176
     1
175
     1
176
     1
 42
1.0
176
     1
 92
        8
176
     1
 66
     8
424
  8421504
176
     1
 43
1.0
176
     1
 76
     1
176
     1
 77
     6
176
     1
 78
     2
176
     1
 67
     7
176
     1
 79
     5
176
     1
170
     0
176
     1
171
     0
176
     1
290
     0
176
     1
 93
        1
176
     1
 44
0.0
176
     1
173
     0
176
     1
  0
VISUALSTYLE
  5
34
102
{ACAD_REACTORS
330
2A
102
}
330
2A
100
AcDbVisualStyle
  2
Conceptual
 70
     9
177
     2
291
     0
 71
     3
176
     1
 72
     2
176
     1
 73
     0
176
     1
 90
        0
176
     1
 40
-0.6
176
     1
 41
-30.0
176
     1
 62
     5
 63
     7
421
 16777215
176
     1
 74
     2
176
     1
 91
        2
176
     1
 64
     7
176
     1
 65
   257
176
     1
 75
     1
176
     1
175
     1
176
     1
 42
40.0
176
     1
 92
        8
176
     1
 66
     7
176
     1
 43
1.0
176
     1
 76
     1
176
     1
 77
     6
176
     1
 78
     2
176
     1
 67
     7
176
     1
 79
     3
176
     1
170
     0
176
     1
171
     0
176
     1
290
     0
176
     1
 93
        1
176
     1
 44
0.0
176
     1
173
     0
176
     1
  0
VISUALSTYLE
  5
35
102
{ACAD_REACTORS
330
2A
102
}
330
2A
100
AcDbVisualStyle
  2
Dim
 70
    11
177
     2
291
     1
 71
     2
176
     1
 72
     2
176
     1
 73
     0
176
     1
 90
        0
176
     1
 40
-0.6
176
     1
 41
-30.0
176
     1
 62
     5
 63
     7
421
 16777215
176
     1
 74
     1
176
     1
 91
        4
176
     1
 64
     7
176
     1
 65
   257
176
     1
 75
     1
176
     1
175
     1
176
     1
 42
1.0
176
     1
 92
        8
176
     1
 66
     7
176
     1
 43
1.0
176
     1
 76
     1
176
     1
 77
     6
176
     1
 78
     2
176
     1
 67
     7
176
     1
 79
     5
176
     1
170
     0
176
     1
171
     0
176
     1
290
     0
176
     1
 93
        1
176
     1
 44
-50.0
176
     1
173
     0
176
     1
  0
VISUALSTYLE
  5
39
102
{ACAD_REACTORS
330
2A
102
}
330
2A
100
AcDbVisualStyle
  2
Facepattern
 70
    15
177
     2
291
     1
 71
     2
176
     1
 72
     2
176
     1
 73
     0
176
     1
 90
        0
176
     1
 40
-0.6
176
     1
 41
-30.0
176
     1
 62
     5
 63
     7
421
 16777215
176
     1
 74
     1
176
     1
 91
        4
176
     1
 64
     7
176
     1
 65
   257
176
     1
 75
     1
176
     1
175
     1
176
     1
 42
1.0
176
     1
 92
        8
176
     1
 66
     7
176
     1
 43
1.0
176
     1
 76
     1
176
     1
 77
     6
176
     1
 78
     2
176
     1
 67
     7
176
     1
 79
     5
176
     1
170
     0
176
     1
171
     0
176
     1
290
     0
176
     1
 93
        1
176
     1
 44
0.0
176
     1
173
     0
176
     1
  0
VISUALSTYLE
  5
2B
102
{ACAD_REACTORS
330
2A
102
}
330
2A
100
AcDbVisualStyle
  2
Flat
 70
     0
177
     2
291
     1
 71
     2
176
     1
 72
     1
176
     1
 73
     1
176
     1
 90
        2
176
     1
 40
-0.6
176
     1
 41
30.0
176
     1
 62
     5
 63
     7
421
 16777215
176
     1
 74
     0
176
     1
 91
        4
176
     1
 64
     7
176
     1
 65
   257
176
     1
 75
     1
176
     1
175
     1
176
     1
 42
1.0
176
     1
 92
        8
176
     1
 66
     7
176
     1
 43
1.0
176
     1
 76
     1
176
     1
 77
     6
176
     1
 78
     2
176
     1
 67
     7
176
     1
 79
     5
176
     1
170
     0
176
     1
171
     0
176
     1
290
     0
176
     1
 93
       13
176
     1
 44
0.0
176
     1
173
     0
176
     1
  0
VISUALSTYLE
  5
2C
102
{ACAD_REACTORS
330
2A
102
}
330
2A
100
AcDbVisualStyle
  2
FlatWithEdges
 70
     1
177
     2
291
     1
 71
     2
176
     1
 72
     1
176
     1
 73
     1
176
     1
 90
        2
176
     1
 40
-0.6
176
     1
 41
30.0
176
     1
 62
     5
 63
     7
421
 16777215
176
     1
 74
     1
176
     1
 91
        4
176
     1
 64
     7
176
     1
 65
   257
176
     1
 75
     1
176
     1
175
     1
176
     1
 42
1.0
176
     1
 92
        0
176
     1
 66
   257
176
     1
 43
1.0
176
     1
 76
     1
176
     1
 77
     6
176
     1
 78
     2
176
     1
 67
     7
176
     1
 79
     5
176
     1
170
     0
176
     1
171
     0
176
     1
290
     0
176
     1
 93
       13
176
     1
 44
0.0
176
     1
173
     0
176
     1
  0
VISUALSTYLE
  5
2D
102
{ACAD_REACTORS
330
2A
102
}
330
2A
100
AcDbVisualStyle
  2
Gouraud
 70
     2
177
     2
291
     1
 71
     2
176
     1
 72
     2
176
     1
 73
     1
176
     1
 90
        2
176
     1
 40
-0.6
176
     1
 41
30.0
176
     1
 62
     5
 63
     7
421
 16777215
176
     1
 74
     0
176
     1
 91
        4
176
     1
 64
     7
176
     1
 65
   257
176
     1
 75
     1
176
     1
175
     1
176
     1
 42
1.0
176
     1
 92
        0
176
     1
 66
     7
176
     1
 43
1.0
176
     1
 76
     1
176
     1
 77
     6
176
     1
 78
     2
176
     1
 67
     7
176
     1
 79
     5
176
     1
170
     0
176
     1
171
     0
176
     1
290
     0
176
     1
 93
       13
176
     1
 44
0.0
176
     1
173
     0
176
     1
  0
VISUALSTYLE
  5
2E
102
{ACAD_REACTORS
330
2A
102
}
330
2A
100
AcDbVisualStyle
  2
GouraudWithEdges
 70
     3
177
     2
291
     1
 71
     2
176
     1
 72
     2
176
     1
 73
     1
176
     1
 90
        2
176
     1
 40
-0.6
176
     1
 41
30.0
176
     1
 62
     5
 63
     7
421
 16777215
176
     1
 74
     1
176
     1
 91
        4
176
     1
 64
     7
176
     1
 65
   257
176
     1
 75
     1
176
     1
175
     1
176
     1
 42
1.0
176
     1
 92
        0
176
     1
 66
   257
176
     1
 43
1.0
176
     1
 76
     1
176
     1
 77
     6
176
     1
 78
     2
176
     1
 67
     7
176
     1
 79
     5
176
     1
170
     0
176
     1
171
     0
176
     1
290
     0
176
     1
 93
       13
176
     1
 44
0.0
176
     1
173
     0
176
     1
  0
VISUALSTYLE
  5
38
102
{ACAD_REACTORS
330
2A
102
}
330
2A
100
AcDbVisualStyle
  2
Linepattern
 70
    14
177
     2
291
     1
 71
     2
176
     1
 72
     2
176
     1
 73
     0
176
     1
 90
        0
176
     1
 40
-0.6
176
     1
 41
-30.0
176
     1
 62
     5
 63
     7
421
 16777215
176
     1
 74
     1
176
     1
 91
        4
176
     1
 64
     7
176
     1
 65
   257
176
     1
 75
     7
176
     1
175
     7
176
     1
 42
1.0
176
     1
 92
        8
176
     1
 66
     7
176
     1
 43
1.0
176
     1
 76
     1
176
     1
 77
     6
176
     1
 78
     2
176
     1
 67
     7
176
     1
 79
     5
176
     1
170
     0
176
     1
171
     0
176
     1
290
     0
176
     1
 93
        1
176
     1
 44
0.0
176
     1
173
     0
176
     1
  0
VISUALSTYLE
  5
33
102
{ACAD_REACTORS
330
2A
102
}
330
2A
100
AcDbVisualStyle
  2
Realistic
 70
     8
177
     2
291
     0
 71
     2
176
     1
 72
     2
176
     1
 73
     0
176
     1
 90
        0
176
     1
 40
-0.6
176
     1
 41
-30.0
176
     1
 62
     5
 63
     7
421
 16777215
176
     1
 74
     1
176
     1
 91
        0
176
     1
 64
     7
176
     1
 65
   257
176
     1
 75
     1
176
     1
175
     1
176
     1
 42
1.0
176
     1
 92
        8
176
     1
 66
     8
424
  7895160
176
     1
 43
1.0
176
     1
 76
     1
176
     1
 77
     6
176
     1
 78
     2
176
     1
 67
     7
176
     1
 79
     5
176
     1
170
     0
176
     1
171
     0
176
     1
290
     0
176
     1
 93
       13
176
     1
 44
0.0
176
     1
173
     0
176
     1
  0
VISUALSTYLE
  5
37
102
{ACAD_REACTORS
330
2A
102
}
330
2A
100
AcDbVisualStyle
  2
Thicken
 70
    13
177
     2
291
     1
 71
     2
176
     1
 72
     2
176
     1
 73
     0
176
     1
 90
        0
176
     1
 40
-0.6
176
     1
 41
-30.0
176
     1
 62
     5
 63
     7
421
 16777215
176
     1
 74
     1
176
     1
 91
        4
176
     1
 64
     7
176
     1
 65
   257
176
     1
 75
     1
176
     1
175
     1
176
     1
 42
1.0
176
     1
 92
       12
176
     1
 66
     7
176
     1
 43
1.0
176
     1
 76
     1
176
     1
 77
     6
176
     1
 78
     2
176
     1
 67
     7
176
     1
 79
     5
176
     1
170
     0
176
     1
171
     0
176
     1
290
     0
176
     1
 93
        1
176
     1
 44
0.0
176
     1
173
     0
176
     1
  0
ENDSEC
  0
EOF
