  0
SECTION
  2
HEADER
  9
$ACADVER
  1
AC1024
  9
$ACADMAINTVER
 70
     6
  9
$DWGCODEPAGE
  3
ANSI_1252
  9
$INSBASE
 10
0.0
 20
0.0
 30
0.0
  9
$EXTMIN
 10
1.000000000000000E+20
 20
1.000000000000000E+20
 30
1.000000000000000E+20
  9
$EXTMAX
 10
610
 20
470
 30
0
  9
$LIMMIN
 10
0.0
 20
0.0
  9
$LIMMAX
 10
12.0
 20
9.0
  9
$ORTHOMODE
 70
     0
  9
$REGENMODE
 70
     1
  9
$FILLMODE
 70
     1
  9
$QTEXTMODE
 70
     0
  9
$MIRRTEXT
 70
     1
  9
$LTSCALE
 40
1.0
  9
$ATTMODE
 70
     1
  9
$TEXTSIZE
 40
0.2
  9
$TRACEWID
 40
0.05
  9
$TEXTSTYLE
  7
Standard
  9
$CLAYER
  8
0
  9
$CELTYPE
  6
ByLayer
  9
$CECOLOR
 62
   256
  9
$CELTSCALE
 40
1.0
  9
$DISPSILH
 70
     0
  9
$DIMSCALE
 40
1.0
  9
$DIMASZ
 40
0.18
  9
$DIMEXO
 40
0.0625
  9
$DIMDLI
 40
0.38
  9
$DIMRND
 40
0.0
  9
$DIMDLE
 40
0.0
  9
$DIMEXE
 40
0.18
  9
$DIMTP
 40
0.0
  9
$DIMTM
 40
0.0
  9
$DIMTXT
 40
0.18
  9
$DIMCEN
 40
0.09
  9
$DIMTSZ
 40
0.0
  9
$DIMTOL
 70
     0
  9
$DIMLIM
 70
     0
  9
$DIMTIH
 70
     1
  9
$DIMTOH
 70
     1
  9
$DIMSE1
 70
     0
  9
$DIMSE2
 70
     0
  9
$DIMTAD
 70
     0
  9
$DIMZIN
 70
     0
  9
$DIMBLK
  1

  9
$DIMASO
 70
     1
  9
$DIMSHO
 70
     1
  9
$DIMPOST
  1

  9
$DIMAPOST
  1

  9
$DIMALT
 70
     0
  9
$DIMALTD
 70
     2
  9
$DIMALTF
 40
25.4
  9
$DIMLFAC
 40
1.0
  9
$DIMTOFL
 70
     0
  9
$DIMTVP
 40
0.0
  9
$DIMTIX
 70
     0
  9
$DIMSOXD
 70
     0
  9
$DIMSAH
 70
     0
  9
$DIMBLK1
  1

  9
$DIMBLK2
  1

  9
$DIMSTYLE
  2
Standard
  9
$DIMCLRD
 70
     0
  9
$DIMCLRE
 70
     0
  9
$DIMCLRT
 70
     0
  9
$DIMTFAC
 40
1.0
  9
$DIMGAP
 40
0.09
  9
$DIMJUST
 70
     0
  9
$DIMSD1
 70
     0
  9
$DIMSD2
 70
     0
  9
$DIMTOLJ
 70
     1
  9
$DIMTZIN
 70
     0
  9
$DIMALTZ
 70
     0
  9
$DIMALTTZ
 70
     0
  9
$DIMUPT
 70
     0
  9
$DIMDEC
 70
     4
  9
$DIMTDEC
 70
     4
  9
$DIMALTU
 70
     2
  9
$DIMALTTD
 70
     2
  9
$DIMTXSTY
  7
Standard
  9
$DIMAUNIT
 70
     0
  9
$DIMADEC
 70
     0
  9
$DIMALTRND
 40
0.0
  9
$DIMAZIN
 70
     0
  9
$DIMDSEP
 70
    46
  9
$DIMATFIT
 70
     3
  9
$DIMFRAC
 70
     0
  9
$DIMLDRBLK
  1

  9
$DIMLUNIT
 70
     2
  9
$DIMLWD
 70
    -2
  9
$DIMLWE
 70
    -2
  9
$DIMTMOVE
 70
     0
  9
$DIMFXL
 40
1.0
  9
$DIMFXLON
 70
     0
  9
$DIMJOGANG
 40
0.7853981633974483
  9
$DIMTFILL
 70
     0
  9
$DIMTFILLCLR
 70
     0
  9
$DIMARCSYM
 70
     0
  9
$DIMLTYPE
  6

  9
$DIMLTEX1
  6

  9
$DIMLTEX2
  6

  9
$DIMTXTDIRECTION
 70
     0
  9
$LUNITS
 70
     2
  9
$LUPREC
 70
     4
  9
$SKETCHINC
 40
0.1
  9
$FILLETRAD
 40
0.5
  9
$AUNITS
 70
     0
  9
$AUPREC
 70
     0
  9
$MENU
  1
.
  9
$ELEVATION
 40
0.0
  9
$PELEVATION
 40
0.0
  9
$THICKNESS
 40
0.0
  9
$LIMCHECK
 70
     0
  9
$CHAMFERA
 40
0.5
  9
$CHAMFERB
 40
0.5
  9
$CHAMFERC
 40
1.0
  9
$CHAMFERD
 40
0.0
  9
$SKPOLY
 70
     0
  9
$TDCREATE
 40
2458331.398187674
  9
$TDUCREATE
 40
2458331.31485434
  9
$TDUPDATE
 40
2458331.398187812
  9
$TDUUPDATE
 40
2458331.314854479
  9
$TDINDWG
 40
0.0000000116
  9
$TDUSRTIMER
 40
0.0000000116
  9
$USRTIMER
 70
     1
  9
$ANGBASE
 50
0.0
  9
$ANGDIR
 70
     0
  9
$PDMODE
 70
     0
  9
$PDSIZE
 40
0.0
  9
$PLINEWID
 40
0.0
  9
$SPLFRAME
 70
     0
  9
$SPLINETYPE
 70
     6
  9
$SPLINESEGS
 70
     8
  9
$HANDSEED
  5
D6
  9
$SURFTAB1
 70
     6
  9
$SURFTAB2
 70
     6
  9
$SURFTYPE
 70
     6
  9
$SURFU
 70
     6
  9
$SURFV
 70
     6
  9
$UCSBASE
  2

  9
$UCSNAME
  2

  9
$UCSORG
 10
0.0
 20
0.0
 30
0.0
  9
$UCSXDIR
 10
1.0
 20
0.0
 30
0.0
  9
$UCSYDIR
 10
0.0
 20
1.0
 30
0.0
  9
$UCSORTHOREF
  2

  9
$UCSORTHOVIEW
 70
     0
  9
$UCSORGTOP
 10
0.0
 20
0.0
 30
0.0
  9
$UCSORGBOTTOM
 10
0.0
 20
0.0
 30
0.0
  9
$UCSORGLEFT
 10
0.0
 20
0.0
 30
0.0
  9
$UCSORGRIGHT
 10
0.0
 20
0.0
 30
0.0
  9
$UCSORGFRONT
 10
0.0
 20
0.0
 30
0.0
  9
$UCSORGBACK
 10
0.0
 20
0.0
 30
0.0
  9
$PUCSBASE
  2

  9
$PUCSNAME
  2

  9
$PUCSORG
 10
0.0
 20
0.0
 30
0.0
  9
$PUCSXDIR
 10
1.0
 20
0.0
 30
0.0
  9
$PUCSYDIR
 10
0.0
 20
1.0
 30
0.0
  9
$PUCSORTHOREF
  2

  9
$PUCSORTHOVIEW
 70
     0
  9
$PUCSORGTOP
 10
0.0
 20
0.0
 30
0.0
  9
$PUCSORGBOTTOM
 10
0.0
 20
0.0
 30
0.0
  9
$PUCSORGLEFT
 10
0.0
 20
0.0
 30
0.0
  9
$PUCSORGRIGHT
 10
0.0
 20
0.0
 30
0.0
  9
$PUCSORGFRONT
 10
0.0
 20
0.0
 30
0.0
  9
$PUCSORGBACK
 10
0.0
 20
0.0
 30
0.0
  9
$USERI1
 70
     0
  9
$USERI2
 70
     0
  9
$USERI3
 70
     0
  9
$USERI4
 70
     0
  9
$USERI5
 70
     0
  9
$USERR1
 40
0.0
  9
$USERR2
 40
0.0
  9
$USERR3
 40
0.0
  9
$USERR4
 40
0.0
  9
$USERR5
 40
0.0
  9
$WORLDVIEW
 70
     1
  9
$SHADEDGE
 70
     3
  9
$SHADEDIF
 70
    70
  9
$TILEMODE
 70
     1
  9
$MAXACTVP
 70
    64
  9
$PINSBASE
 10
0.0
 20
0.0
 30
0.0
  9
$PLIMCHECK
 70
     0
  9
$PEXTMIN
 10
1.000000000000000E+20
 20
1.000000000000000E+20
 30
1.000000000000000E+20
  9
$PEXTMAX
 10
-1.000000000000000E+20
 20
-1.000000000000000E+20
 30
-1.000000000000000E+20
  9
$PLIMMIN
 10
0.0
 20
0.0
  9
$PLIMMAX
 10
12.0
 20
9.0
  9
$UNITMODE
 70
     0
  9
$VISRETAIN
 70
     1
  9
$PLINEGEN
 70
     0
  9
$PSLTSCALE
 70
     1
  9
$TREEDEPTH
 70
  3020
  9
$CMLSTYLE
  2
Standard
  9
$CMLJUST
 70
     0
  9
$CMLSCALE
 40
1.0
  9
$PROXYGRAPHICS
 70
     1
  9
$MEASUREMENT
 70
     0
  9
$CELWEIGHT
370
    -1
  9
$ENDCAPS
280
     0
  9
$JOINSTYLE
280
     0
  9
$LWDISPLAY
290
     1
  9
$INSUNITS
 70
     1
  9
$HYPERLINKBASE
  1

  9
$STYLESHEET
  1

  9
$XEDIT
290
     1
  9
$CEPSNTYPE
380
     0
  9
$PSTYLEMODE
290
     1
  9
$FINGERPRINTGUID
  2
{4B97622E-2E77-4DB5-B909-3EF71E673980}
  9
$VERSIONGUID
  2
{FAEB1C32-E019-11D5-929B-00C0DF256EC4}
  9
$EXTNAMES
290
     1
  9
$PSVPSCALE
 40
0.0
  9
$OLESTARTUP
290
     0
  9
$SORTENTS
280
   127
  9
$INDEXCTL
280
     0
  9
$HIDETEXT
280
     1
  9
$XCLIPFRAME
280
     2
  9
$HALOGAP
280
     0
  9
$OBSCOLOR
 70
   257
  9
$OBSLTYPE
280
     0
  9
$INTERSECTIONDISPLAY
280
     0
  9
$INTERSECTIONCOLOR
 70
   257
  9
$DIMASSOC
280
     2
  9
$PROJECTNAME
  1

  9
$CAMERADISPLAY
290
     0
  9
$LENSLENGTH
 40
50.0
  9
$CAMERAHEIGHT
 40
0.0
  9
$STEPSPERSEC
 40
2.0
  9
$STEPSIZE
 40
6.0
  9
$3DDWFPREC
 40
2.0
  9
$PSOLWIDTH
 40
0.25
  9
$PSOLHEIGHT
 40
4.0
  9
$LOFTANG1
 40
1.570796326794897
  9
$LOFTANG2
 40
1.570796326794897
  9
$LOFTMAG1
 40
0.0
  9
$LOFTMAG2
 40
0.0
  9
$LOFTPARAM
 70
     7
  9
$LOFTNORMALS
280
     1
  9
$LATITUDE
 40
37.795
  9
$LONGITUDE
 40
-122.394
  9
$NORTHDIRECTION
 40
0.0
  9
$TIMEZONE
 70
 -8000
  9
$LIGHTGLYPHDISPLAY
280
     1
  9
$TILEMODELIGHTSYNCH
280
     1
  9
$CMATERIAL
347
3C
  9
$SOLIDHIST
280
     1
  9
$SHOWHIST
280
     1
  9
$DWFFRAME
280
     2
  9
$DGNFRAME
280
     2
  9
$REALWORLDSCALE
290
     1
  9
$INTERFERECOLOR
 62
   256
  9
$CSHADOW
280
     0
  9
$SHADOWPLANELOCATION
 40
0.0
  0
ENDSEC
  0
SECTION
  2
CLASSES
  0
CLASS
  1
ACDBDICTIONARYWDFLT
  2
AcDbDictionaryWithDefault
  3
ObjectDBX Classes
 90
        0
 91
        4
280
     0
281
     0
  0
CLASS
  1
VISUALSTYLE
  2
AcDbVisualStyle
  3
ObjectDBX Classes
 90
     4095
 91
        4
280
     0
281
     0
  0
CLASS
  1
MATERIAL
  2
AcDbMaterial
  3
ObjectDBX Classes
 90
     1153
 91
        4
280
     0
281
     0
  0
CLASS
  1
SUN
  2
AcDbSun
  3
SCENEOE
 90
     1024
 91
        4
280
     0
281
     0
  0
ENDSEC
  0
SECTION
  2
TABLES
  0
TABLE
  2
VPORT
  5
8
330
0
100
AcDbSymbolTable
 70
     1
  0
VPORT
  5
29
330
8
100
AcDbSymbolTableRecord
100
AcDbViewportTableRecord
  2
*Active
 70
     0
 10
0.0
 20
0.0
 11
1.0
 21
1.0
 12
0.0
 22
0.0
 13
0.0
 23
0.0
 14
0.5
 24
0.5
 15
0.5
 25
0.5
 16
0.0
 26
0.0
 36
1.0
 17
306.0
 27
396.0
 37
0.0
 40
792.0
 41
0.7727272727272727
 42
50.0
 43
0.0
 44
0.0
 50
0.0
 51
0.0
 71
     0
 72
   100
 73
     1
 74
     3
 75
     0
 76
     0
 77
     0
 78
     0
281
     0
 65
     1
110
0.0
120
0.0
130
0.0
111
1.0
121
0.0
131
0.0
112
0.0
122
1.0
132
0.0
 79
     0
146
0.0
 60
     3
 61
     5
292
     1
282
     1
141
0.0
142
0.0
 63
   250
361
3F
  0
ENDTAB
  0
TABLE
  2
LTYPE
  5
5
330
0
100
AcDbSymbolTable
 70
     1
  0
LTYPE
  5
14
330
5
100
AcDbSymbolTableRecord
100
AcDbLinetypeTableRecord
  2
ByBlock
 70
     0
  3

 72
    65
 73
     0
 40
0.0
  0
LTYPE
  5
15
330
5
100
AcDbSymbolTableRecord
100
AcDbLinetypeTableRecord
  2
ByLayer
 70
     0
  3

 72
    65
 73
     0
 40
0.0
  0
LTYPE
  5
16
330
5
100
AcDbSymbolTableRecord
100
AcDbLinetypeTableRecord
  2
Continuous
 70
     0
  3
Solid line
 72
    65
 73
     0
 40
0.0
  0
ENDTAB
  0
TABLE
  2
LAYER
  5
2
330
0
100
AcDbSymbolTable
 70
     2
  0
LAYER
  5
10
330
2
100
AcDbSymbolTableRecord
100
AcDbLayerTableRecord
  2
0
 70
     0
 62
     7
  6
Continuous
370
    -3
390
F
347
3E
  0
LAYER
  5
40
330
2
100
AcDbSymbolTableRecord
100
AcDbLayerTableRecord
  2
Layer0
 70
     0
 62
     7
  6
Continuous
370
    -3
390
F
347
3E
  0
ENDTAB
  0
TABLE
  2
STYLE
  5
3
330
0
100
AcDbSymbolTable
 70
     1
  0
STYLE
  5
11
330
3
100
AcDbSymbolTableRecord
100
AcDbTextStyleTableRecord
  2
Standard
 70
     0
 40
0.0
 41
1.0
 50
0.0
 71
     0
 42
0.2
  3
txt
  4

  0
ENDTAB
  0
TABLE
  2
VIEW
  5
6
330
0
100
AcDbSymbolTable
 70
     0
  0
ENDTAB
  0
TABLE
  2
UCS
  5
7
330
0
100
AcDbSymbolTable
 70
     0
  0
ENDTAB
  0
TABLE
  2
APPID
  5
9
330
0
100
AcDbSymbolTable
 70
     1
  0
APPID
  5
12
330
9
100
AcDbSymbolTableRecord
100
AcDbRegAppTableRecord
  2
ACAD
 70
     0
  0
ENDTAB
  0
TABLE
  2
DIMSTYLE
  5
A
330
0
100
AcDbSymbolTable
 70
     1
100
AcDbDimStyleTable
  0
DIMSTYLE
105
27
330
A
100
AcDbSymbolTableRecord
100
AcDbDimStyleTableRecord
  2
Standard
 70
     0
178
     0
340
11
  0
ENDTAB
  0
TABLE
  2
BLOCK_RECORD
  5
1
330
0
100
AcDbSymbolTable
 70
     2
  0
BLOCK_RECORD
  5
1F
330
1
100
AcDbSymbolTableRecord
100
AcDbBlockTableRecord
  2
*Model_Space
340
22
 70
     0
280
     1
281
     0
  0
BLOCK_RECORD
  5
1B
330
1
100
AcDbSymbolTableRecord
100
AcDbBlockTableRecord
  2
*Paper_Space
340
1E
 70
     0
280
     1
281
     0
  0
BLOCK_RECORD
  5
23
330
1
100
AcDbSymbolTableRecord
100
AcDbBlockTableRecord
  2
*Paper_Space0
340
26
 70
     0
280
     1
281
     0
  0
BLOCK_RECORD
  5
41
330
1
100
AcDbSymbolTableRecord
100
AcDbBlockTableRecord
  2
block 2
340
0
102
{BLKREFS
331
42
102
}
 70
     0
280
     1
281
     0
  0
ENDTAB
  0
ENDSEC
  0
SECTION
  2
BLOCKS
  0
BLOCK
  5
20
330
1F
100
AcDbEntity
  8
0
100
AcDbBlockBegin
  2
*Model_Space
 70
     0
 10
0.0
 20
0.0
 30
0.0
  3
*Model_Space
  1

  0
ENDBLK
  5
21
330
1F
100
AcDbEntity
  8
0
100
AcDbBlockEnd
  0
BLOCK
  5
1C
330
1B
100
AcDbEntity
 67
     1
  8
0
100
AcDbBlockBegin
  2
*Paper_Space
 70
     0
 10
0.0
 20
0.0
 30
0.0
  3
*Paper_Space
  1

  0
ENDBLK
  5
1D
330
1B
100
AcDbEntity
 67
     1
  8
0
100
AcDbBlockEnd
  0
BLOCK
  5
24
330
23
100
AcDbEntity
  8
0
100
AcDbBlockBegin
  2
*Paper_Space0
 70
     0
 10
0.0
 20
0.0
 30
0.0
  3
*Paper_Space0
  1

  0
ENDBLK
  5
25
330
23
100
AcDbEntity
  8
0
100
AcDbBlockEnd
  0
BLOCK
  5
43
330
41
100
AcDbEntity
  8
0
100
AcDbBlockBegin
  2
block 2
 70
     0
 10
0.0
 20
0.0
 30
0.0
  3
block 2
  1

  0
POLYLINE
  5
45
330
41
100
AcDbEntity
  8
Layer0
 62
   142
420
    38360
370
    25
100
AcDb2dPolyline
 66
     1
 10
0.0
 20
0.0
 30
0.0
  0
VERTEX
  5
46
330
45
100
AcDbEntity
  8
Layer0
 62
   142
420
    38360
370
    25
100
AcDbVertex
100
AcDb2dVertex
 10
514.005000000001
 20
534.3779999999997
 30
0.0
  0
VERTEX
  5
47
330
45
100
AcDbEntity
  8
Layer0
 62
   142
420
    38360
370
    25
100
AcDbVertex
100
AcDb2dVertex
 10
511.7333439941413
 20
538.4090156250004
 30
0.0
  0
VERTEX
  5
48
330
45
100
AcDbEntity
  8
Layer0
 62
   142
420
    38360
370
    25
100
AcDbVertex
100
AcDb2dVertex
 10
509.3617988281258
 20
542.2349999999997
 30
0.0
  0
VERTEX
  5
49
330
45
100
AcDbEntity
  8
Layer0
 62
   142
420
    38360
370
    25
100
AcDbVertex
100
AcDb2dVertex
 10
506.8943737792979
 20
545.8483593749997
 30
0.0
  0
VERTEX
  5
4A
330
45
100
AcDbEntity
  8
Layer0
 62
   142
420
    38360
370
    25
100
AcDbVertex
100
AcDb2dVertex
 10
504.3350781249992
 20
549.2415000000001
 30
0.0
  0
VERTEX
  5
4B
330
45
100
AcDbEntity
  8
Layer0
 62
   142
420
    38360
370
    25
100
AcDbVertex
100
AcDb2dVertex
 10
501.6879211425785
 20
552.4068281250002
 30
0.0
  0
VERTEX
  5
4C
330
45
100
AcDbEntity
  8
Layer0
 62
   142
420
    38360
370
    25
100
AcDbVertex
100
AcDb2dVertex
 10
498.9569121093755
 20
555.3367500000004
 30
0.0
  0
VERTEX
  5
4D
330
45
100
AcDbEntity
  8
Layer0
 62
   142
420
    38360
370
    25
100
AcDbVertex
100
AcDb2dVertex
 10
496.1460603027335
 20
558.0236718750002
 30
0.0
  0
VERTEX
  5
4E
330
45
100
AcDbEntity
  8
Layer0
 62
   142
420
    38360
370
    25
100
AcDbVertex
100
AcDb2dVertex
 10
493.2593749999996
 20
560.46
 30
0.0
  0
VERTEX
  5
4F
330
45
100
AcDbEntity
  8
Layer0
 62
   142
420
    38360
370
    25
100
AcDbVertex
100
AcDb2dVertex
 10
490.3008654785153
 20
562.6381406250002
 30
0.0
  0
VERTEX
  5
50
330
45
100
AcDbEntity
  8
Layer0
 62
   142
420
    38360
370
    25
100
AcDbVertex
100
AcDb2dVertex
 10
487.2745410156258
 20
564.5505000000003
 30
0.0
  0
VERTEX
  5
51
330
45
100
AcDbEntity
  8
Layer0
 62
   142
420
    38360
370
    25
100
AcDbVertex
100
AcDb2dVertex
 10
484.1844108886726
 20
566.1894843749997
 30
0.0
  0
VERTEX
  5
52
330
45
100
AcDbEntity
  8
Layer0
 62
   142
420
    38360
370
    25
100
AcDbVertex
100
AcDb2dVertex
 10
481.0344843750008
 20
567.5474999999997
 30
0.0
  0
VERTEX
  5
53
330
45
100
AcDbEntity
  8
Layer0
 62
   142
420
    38360
370
    25
100
AcDbVertex
100
AcDb2dVertex
 10
477.8287707519539
 20
568.6169531249998
 30
0.0
  0
VERTEX
  5
54
330
45
100
AcDbEntity
  8
Layer0
 62
   142
420
    38360
370
    25
100
AcDbVertex
100
AcDb2dVertex
 10
474.5712792968752
 20
569.3902500000004
 30
0.0
  0
VERTEX
  5
55
330
45
100
AcDbEntity
  8
Layer0
 62
   142
420
    38360
370
    25
100
AcDbVertex
100
AcDb2dVertex
 10
471.2660192871099
 20
569.859796875
 30
0.0
  0
VERTEX
  5
56
330
45
100
AcDbEntity
  8
Layer0
 62
   142
420
    38360
370
    25
100
AcDbVertex
100
AcDb2dVertex
 10
467.9169999999995
 20
570.018
 30
0.0
  0
VERTEX
  5
57
330
45
100
AcDbEntity
  8
Layer0
 62
   142
420
    38360
370
    25
100
AcDbVertex
100
AcDb2dVertex
 10
436.902
 20
570.018
 30
0.0
  0
VERTEX
  5
58
330
45
100
AcDbEntity
  8
Layer0
 62
   142
420
    38360
370
    25
100
AcDbVertex
100
AcDb2dVertex
 10
430.4971025390623
 20
577.0018249511722
 30
0.0
  0
VERTEX
  5
59
330
45
100
AcDbEntity
  8
Layer0
 62
   142
420
    38360
370
    25
100
AcDbVertex
100
AcDb2dVertex
 10
423.8424609374997
 20
583.6242246093752
 30
0.0
  0
VERTEX
  5
5A
330
45
100
AcDbEntity
  8
Layer0
 62
   142
420
    38360
370
    25
100
AcDbVertex
100
AcDb2dVertex
 10
416.947901367188
 20
589.8728986816413
 30
0.0
  0
VERTEX
  5
5B
330
45
100
AcDbEntity
  8
Layer0
 62
   142
420
    38360
370
    25
100
AcDbVertex
100
AcDb2dVertex
 10
409.8232499999995
 20
595.7355468750002
 30
0.0
  0
VERTEX
  5
5C
330
45
100
AcDbEntity
  8
Layer0
 62
   142
420
    38360
370
    25
100
AcDbVertex
100
AcDb2dVertex
 10
402.4783330078117
 20
601.1998688964841
 30
0.0
  0
VERTEX
  5
5D
330
45
100
AcDbEntity
  8
Layer0
 62
   142
420
    38360
370
    25
100
AcDbVertex
100
AcDb2dVertex
 10
394.9229765625005
 20
606.2535644531254
 30
0.0
  0
VERTEX
  5
5E
330
45
100
AcDbEntity
  8
Layer0
 62
   142
420
    38360
370
    25
100
AcDbVertex
100
AcDb2dVertex
 10
387.1670068359363
 20
610.8843332519527
 30
0.0
  0
VERTEX
  5
5F
330
45
100
AcDbEntity
  8
Layer0
 62
   142
420
    38360
370
    25
100
AcDbVertex
100
AcDb2dVertex
 10
379.2202500000003
 20
615.0798750000004
 30
0.0
  0
VERTEX
  5
60
330
45
100
AcDbEntity
  8
Layer0
 62
   142
420
    38360
370
    25
100
AcDbVertex
100
AcDb2dVertex
 10
371.0925322265612
 20
618.8278894042969
 30
0.0
  0
VERTEX
  5
61
330
45
100
AcDbEntity
  8
Layer0
 62
   142
420
    38360
370
    25
100
AcDbVertex
100
AcDb2dVertex
 10
362.7936796875001
 20
622.1160761718747
 30
0.0
  0
VERTEX
  5
62
330
45
100
AcDbEntity
  8
Layer0
 62
   142
420
    38360
370
    25
100
AcDbVertex
100
AcDb2dVertex
 10
354.3335185546875
 20
624.9321350097662
 30
0.0
  0
VERTEX
  5
63
330
45
100
AcDbEntity
  8
Layer0
 62
   142
420
    38360
370
    25
100
AcDbVertex
100
AcDb2dVertex
 10
345.7218749999993
 20
627.2637656249999
 30
0.0
  0
VERTEX
  5
64
330
45
100
AcDbEntity
  8
Layer0
 62
   142
420
    38360
370
    25
100
AcDbVertex
100
AcDb2dVertex
 10
336.968575195313
 20
629.0986677246092
 30
0.0
  0
VERTEX
  5
65
330
45
100
AcDbEntity
  8
Layer0
 62
   142
420
    38360
370
    25
100
AcDbVertex
100
AcDb2dVertex
 10
328.0834453125008
 20
630.4245410156254
 30
0.0
  0
VERTEX
  5
66
330
45
100
AcDbEntity
  8
Layer0
 62
   142
420
    38360
370
    25
100
AcDbVertex
100
AcDb2dVertex
 10
319.0763115234367
 20
631.2290852050783
 30
0.0
  0
VERTEX
  5
67
330
45
100
AcDbEntity
  8
Layer0
 62
   142
420
    38360
370
    25
100
AcDbVertex
100
AcDb2dVertex
 10
309.9570000000003
 20
631.5
 30
0.0
  0
VERTEX
  5
68
330
45
100
AcDbEntity
  8
Layer0
 62
   142
420
    38360
370
    25
100
AcDbVertex
100
AcDb2dVertex
 10
300.8388779296884
 20
631.2290852050783
 30
0.0
  0
VERTEX
  5
69
330
45
100
AcDbEntity
  8
Layer0
 62
   142
420
    38360
370
    25
100
AcDbVertex
100
AcDb2dVertex
 10
291.8327109375005
 20
630.4245410156254
 30
0.0
  0
VERTEX
  5
6A
330
45
100
AcDbEntity
  8
Layer0
 62
   142
420
    38360
370
    25
100
AcDbVertex
100
AcDb2dVertex
 10
282.9483603515628
 20
629.0986677246092
 30
0.0
  0
VERTEX
  5
6B
330
45
100
AcDbEntity
  8
Layer0
 62
   142
420
    38360
370
    25
100
AcDbVertex
100
AcDb2dVertex
 10
274.1956874999996
 20
627.2637656249999
 30
0.0
  0
VERTEX
  5
6C
330
45
100
AcDbEntity
  8
Layer0
 62
   142
420
    38360
370
    25
100
AcDbVertex
100
AcDb2dVertex
 10
265.5845537109371
 20
624.9321350097662
 30
0.0
  0
VERTEX
  5
6D
330
45
100
AcDbEntity
  8
Layer0
 62
   142
420
    38360
370
    25
100
AcDbVertex
100
AcDb2dVertex
 10
257.1248203124997
 20
622.1160761718747
 30
0.0
  0
VERTEX
  5
6E
330
45
100
AcDbEntity
  8
Layer0
 62
   142
420
    38360
370
    25
100
AcDbVertex
100
AcDb2dVertex
 10
248.8263486328124
 20
618.8278894042969
 30
0.0
  0
VERTEX
  5
6F
330
45
100
AcDbEntity
  8
Layer0
 62
   142
420
    38360
370
    25
100
AcDbVertex
100
AcDb2dVertex
 10
240.6990000000005
 20
615.0798750000004
 30
0.0
  0
VERTEX
  5
70
330
45
100
AcDbEntity
  8
Layer0
 62
   142
420
    38360
370
    25
100
AcDbVertex
100
AcDb2dVertex
 10
232.7526357421866
 20
610.8843332519527
 30
0.0
  0
VERTEX
  5
71
330
45
100
AcDbEntity
  8
Layer0
 62
   142
420
    38360
370
    25
100
AcDbVertex
100
AcDb2dVertex
 10
224.9971171875004
 20
606.2535644531254
 30
0.0
  0
VERTEX
  5
72
330
45
100
AcDbEntity
  8
Layer0
 62
   142
420
    38360
370
    25
100
AcDbVertex
100
AcDb2dVertex
 10
217.4423056640617
 20
601.1998688964841
 30
0.0
  0
VERTEX
  5
73
330
45
100
AcDbEntity
  8
Layer0
 62
   142
420
    38360
370
    25
100
AcDbVertex
100
AcDb2dVertex
 10
210.0980625000002
 20
595.7355468750002
 30
0.0
  0
VERTEX
  5
74
330
45
100
AcDbEntity
  8
Layer0
 62
   142
420
    38360
370
    25
100
AcDbVertex
100
AcDb2dVertex
 10
202.9742490234366
 20
589.8728986816413
 30
0.0
  0
VERTEX
  5
75
330
45
100
AcDbEntity
  8
Layer0
 62
   142
420
    38360
370
    25
100
AcDbVertex
100
AcDb2dVertex
 10
196.0807265624999
 20
583.6242246093752
 30
0.0
  0
VERTEX
  5
76
330
45
100
AcDbEntity
  8
Layer0
 62
   142
420
    38360
370
    25
100
AcDbVertex
100
AcDb2dVertex
 10
189.4273564453133
 20
577.0018249511722
 30
0.0
  0
VERTEX
  5
77
330
45
100
AcDbEntity
  8
Layer0
 62
   142
420
    38360
370
    25
100
AcDbVertex
100
AcDb2dVertex
 10
183.0240000000003
 20
570.018
 30
0.0
  0
VERTEX
  5
78
330
45
100
AcDbEntity
  8
Layer0
 62
   142
420
    38360
370
    25
100
AcDbVertex
100
AcDb2dVertex
 10
147.5960000000005
 20
570.018
 30
0.0
  0
VERTEX
  5
79
330
45
100
AcDbEntity
  8
Layer0
 62
   142
420
    38360
370
    25
100
AcDbVertex
100
AcDb2dVertex
 10
144.248288085937
 20
569.859796875
 30
0.0
  0
VERTEX
  5
7A
330
45
100
AcDbEntity
  8
Layer0
 62
   142
420
    38360
370
    25
100
AcDbVertex
100
AcDb2dVertex
 10
140.9439765625002
 20
569.3902500000004
 30
0.0
  0
VERTEX
  5
7B
330
45
100
AcDbEntity
  8
Layer0
 62
   142
420
    38360
370
    25
100
AcDbVertex
100
AcDb2dVertex
 10
137.687114257812
 20
568.6169531249998
 30
0.0
  0
VERTEX
  5
7C
330
45
100
AcDbEntity
  8
Layer0
 62
   142
420
    38360
370
    25
100
AcDbVertex
100
AcDb2dVertex
 10
134.4817499999999
 20
567.5474999999997
 30
0.0
  0
VERTEX
  5
7D
330
45
100
AcDbEntity
  8
Layer0
 62
   142
420
    38360
370
    25
100
AcDbVertex
100
AcDb2dVertex
 10
131.3319326171868
 20
566.1894843749997
 30
0.0
  0
VERTEX
  5
7E
330
45
100
AcDbEntity
  8
Layer0
 62
   142
420
    38360
370
    25
100
AcDbVertex
100
AcDb2dVertex
 10
128.2417109375001
 20
564.5505000000003
 30
0.0
  0
VERTEX
  5
7F
330
45
100
AcDbEntity
  8
Layer0
 62
   142
420
    38360
370
    25
100
AcDbVertex
100
AcDb2dVertex
 10
125.2151337890618
 20
562.6381406250002
 30
0.0
  0
VERTEX
  5
80
330
45
100
AcDbEntity
  8
Layer0
 62
   142
420
    38360
370
    25
100
AcDbVertex
100
AcDb2dVertex
 10
122.2562500000004
 20
560.46
 30
0.0
  0
VERTEX
  5
81
330
45
100
AcDbEntity
  8
Layer0
 62
   142
420
    38360
370
    25
100
AcDbVertex
100
AcDb2dVertex
 10
119.3691083984368
 20
558.0236718750002
 30
0.0
  0
VERTEX
  5
82
330
45
100
AcDbEntity
  8
Layer0
 62
   142
420
    38360
370
    25
100
AcDbVertex
100
AcDb2dVertex
 10
116.5577578125003
 20
555.3367500000004
 30
0.0
  0
VERTEX
  5
83
330
45
100
AcDbEntity
  8
Layer0
 62
   142
420
    38360
370
    25
100
AcDbVertex
100
AcDb2dVertex
 10
113.826247070313
 20
552.4068281250002
 30
0.0
  0
VERTEX
  5
84
330
45
100
AcDbEntity
  8
Layer0
 62
   142
420
    38360
370
    25
100
AcDbVertex
100
AcDb2dVertex
 10
111.1786250000005
 20
549.2415000000001
 30
0.0
  0
VERTEX
  5
85
330
45
100
AcDbEntity
  8
Layer0
 62
   142
420
    38360
370
    25
100
AcDbVertex
100
AcDb2dVertex
 10
108.6189404296874
 20
545.8483593749997
 30
0.0
  0
VERTEX
  5
86
330
45
100
AcDbEntity
  8
Layer0
 62
   142
420
    38360
370
    25
100
AcDbVertex
100
AcDb2dVertex
 10
106.1512421875004
 20
542.2349999999997
 30
0.0
  0
VERTEX
  5
87
330
45
100
AcDbEntity
  8
Layer0
 62
   142
420
    38360
370
    25
100
AcDbVertex
100
AcDb2dVertex
 10
103.7795791015624
 20
538.4090156250004
 30
0.0
  0
VERTEX
  5
88
330
45
100
AcDbEntity
  8
Layer0
 62
   142
420
    38360
370
    25
100
AcDbVertex
100
AcDb2dVertex
 10
101.5079999999998
 20
534.3779999999997
 30
0.0
  0
VERTEX
  5
89
330
45
100
AcDbEntity
  8
Layer0
 62
   142
420
    38360
370
    25
100
AcDbVertex
100
AcDb2dVertex
 10
64.14900000000034
 20
534.1210000000001
 30
0.0
  0
VERTEX
  5
8A
330
45
100
AcDbEntity
  8
Layer0
 62
   142
420
    38360
370
    25
100
AcDbVertex
100
AcDb2dVertex
 10
1.3100000000004
 20
396.5
 30
0.0
  0
VERTEX
  5
8B
330
45
100
AcDbEntity
  8
Layer0
 62
   142
420
    38360
370
    25
100
AcDbVertex
100
AcDb2dVertex
 10
64.14900000000034
 20
261.0339999999997
 30
0.0
  0
VERTEX
  5
8C
330
45
100
AcDbEntity
  8
Layer0
 62
   142
420
    38360
370
    25
100
AcDbVertex
100
AcDb2dVertex
 10
90.90899999999965
 20
261.1839999999993
 30
0.0
  0
VERTEX
  5
8D
330
45
100
AcDbEntity
  8
Layer0
 62
   142
420
    38360
370
    25
100
AcDbVertex
100
AcDb2dVertex
 10
93.1530092773437
 20
254.4463144531255
 30
0.0
  0
VERTEX
  5
8E
330
45
100
AcDbEntity
  8
Layer0
 62
   142
420
    38360
370
    25
100
AcDbVertex
100
AcDb2dVertex
 10
95.6158867187496
 20
248.0088749999995
 30
0.0
  0
VERTEX
  5
8F
330
45
100
AcDbEntity
  8
Layer0
 62
   142
420
    38360
370
    25
100
AcDbVertex
100
AcDb2dVertex
 10
98.28784423828074
 20
241.8902324218743
 30
0.0
  0
VERTEX
  5
90
330
45
100
AcDbEntity
  8
Layer0
 62
   142
420
    38360
370
    25
100
AcDbVertex
100
AcDb2dVertex
 10
101.1590937500005
 20
236.1089374999992
 30
0.0
  0
VERTEX
  5
91
330
45
100
AcDbEntity
  8
Layer0
 62
   142
420
    38360
370
    25
100
AcDbVertex
100
AcDb2dVertex
 10
104.2198471679694
 20
230.6835410156255
 30
0.0
  0
VERTEX
  5
92
330
45
100
AcDbEntity
  8
Layer0
 62
   142
420
    38360
370
    25
100
AcDbVertex
100
AcDb2dVertex
 10
107.4603164062501
 20
225.6325937500005
 30
0.0
  0
VERTEX
  5
93
330
45
100
AcDbEntity
  8
Layer0
 62
   142
420
    38360
370
    25
100
AcDbVertex
100
AcDb2dVertex
 10
110.8707133789057
 20
220.9746464843756
 30
0.0
  0
VERTEX
  5
94
330
45
100
AcDbEntity
  8
Layer0
 62
   142
420
    38360
370
    25
100
AcDbVertex
100
AcDb2dVertex
 10
114.4412499999999
 20
216.7282500000001
 30
0.0
  0
VERTEX
  5
95
330
45
100
AcDbEntity
  8
Layer0
 62
   142
420
    38360
370
    25
100
AcDbVertex
100
AcDb2dVertex
 10
118.1621381835939
 20
212.9119550781252
 30
0.0
  0
VERTEX
  5
96
330
45
100
AcDbEntity
  8
Layer0
 62
   142
420
    38360
370
    25
100
AcDbVertex
100
AcDb2dVertex
 10
122.0235898437504
 20
209.5443125000002
 30
0.0
  0
VERTEX
  5
97
330
45
100
AcDbEntity
  8
Layer0
 62
   142
420
    38360
370
    25
100
AcDbVertex
100
AcDb2dVertex
 10
126.0158168945309
 20
206.6438730468744
 30
0.0
  0
VERTEX
  5
98
330
45
100
AcDbEntity
  8
Layer0
 62
   142
420
    38360
370
    25
100
AcDbVertex
100
AcDb2dVertex
 10
130.1290312500005
 20
204.2291874999992
 30
0.0
  0
VERTEX
  5
99
330
45
100
AcDbEntity
  8
Layer0
 62
   142
420
    38360
370
    25
100
AcDbVertex
100
AcDb2dVertex
 10
134.353444824219
 20
202.3188066406256
 30
0.0
  0
VERTEX
  5
9A
330
45
100
AcDbEntity
  8
Layer0
 62
   142
420
    38360
370
    25
100
AcDbVertex
100
AcDb2dVertex
 10
138.6792695312497
 20
200.9312812499993
 30
0.0
  0
VERTEX
  5
9B
330
45
100
AcDbEntity
  8
Layer0
 62
   142
420
    38360
370
    25
100
AcDbVertex
100
AcDb2dVertex
 10
143.096717285156
 20
200.0851621093752
 30
0.0
  0
VERTEX
  5
9C
330
45
100
AcDbEntity
  8
Layer0
 62
   142
420
    38360
370
    25
100
AcDbVertex
100
AcDb2dVertex
 10
147.5960000000005
 20
199.7990000000009
 30
0.0
  0
VERTEX
  5
9D
330
45
100
AcDbEntity
  8
Layer0
 62
   142
420
    38360
370
    25
100
AcDbVertex
100
AcDb2dVertex
 10
206.9580000000005
 20
199.7990000000009
 30
0.0
  0
VERTEX
  5
9E
330
45
100
AcDbEntity
  8
Layer0
 62
   142
420
    38360
370
    25
100
AcDbVertex
100
AcDb2dVertex
 10
212.5741105957031
 20
195.3805175781254
 30
0.0
  0
VERTEX
  5
9F
330
45
100
AcDbEntity
  8
Layer0
 62
   142
420
    38360
370
    25
100
AcDbVertex
100
AcDb2dVertex
 10
218.3212441406249
 20
191.2047187499993
 30
0.0
  0
VERTEX
  5
A0
330
45
100
AcDbEntity
  8
Layer0
 62
   142
420
    38360
370
    25
100
AcDbVertex
100
AcDb2dVertex
 10
224.1947907714839
 20
187.2774511718744
 30
0.0
  0
VERTEX
  5
A1
330
45
100
AcDbEntity
  8
Layer0
 62
   142
420
    38360
370
    25
100
AcDbVertex
100
AcDb2dVertex
 10
230.1901406249999
 20
183.6045625000006
 30
0.0
  0
VERTEX
  5
A2
330
45
100
AcDbEntity
  8
Layer0
 62
   142
420
    38360
370
    25
100
AcDbVertex
100
AcDb2dVertex
 10
236.302683837891
 20
180.191900390626
 30
0.0
  0
VERTEX
  5
A3
330
45
100
AcDbEntity
  8
Layer0
 62
   142
420
    38360
370
    25
100
AcDbVertex
100
AcDb2dVertex
 10
242.5278105468751
 20
177.0453125000004
 30
0.0
  0
VERTEX
  5
A4
330
45
100
AcDbEntity
  8
Layer0
 62
   142
420
    38360
370
    25
100
AcDbVertex
100
AcDb2dVertex
 10
248.8609108886722
 20
174.1706464843755
 30
0.0
  0
VERTEX
  5
A5
330
45
100
AcDbEntity
  8
Layer0
 62
   142
420
    38360
370
    25
100
AcDbVertex
100
AcDb2dVertex
 10
255.2973750000001
 20
171.5737499999996
 30
0.0
  0
VERTEX
  5
A6
330
45
100
AcDbEntity
  8
Layer0
 62
   142
420
    38360
370
    25
100
AcDbVertex
100
AcDb2dVertex
 10
261.8325930175779
 20
169.2604707031242
 30
0.0
  0
VERTEX
  5
A7
330
45
100
AcDbEntity
  8
Layer0
 62
   142
420
    38360
370
    25
100
AcDbVertex
100
AcDb2dVertex
 10
268.4619550781254
 20
167.2366562499992
 30
0.0
  0
VERTEX
  5
A8
330
45
100
AcDbEntity
  8
Layer0
 62
   142
420
    38360
370
    25
100
AcDbVertex
100
AcDb2dVertex
 10
275.1808513183587
 20
165.5081542968746
 30
0.0
  0
VERTEX
  5
A9
330
45
100
AcDbEntity
  8
Layer0
 62
   142
420
    38360
370
    25
100
AcDbVertex
100
AcDb2dVertex
 10
281.9846718750005
 20
164.0808125000003
 30
0.0
  0
VERTEX
  5
AA
330
45
100
AcDbEntity
  8
Layer0
 62
   142
420
    38360
370
    25
100
AcDbVertex
100
AcDb2dVertex
 10
288.8688068847659
 20
162.9604785156243
 30
0.0
  0
VERTEX
  5
AB
330
45
100
AcDbEntity
  8
Layer0
 62
   142
420
    38360
370
    25
100
AcDbVertex
100
AcDb2dVertex
 10
295.828646484375
 20
162.1530000000002
 30
0.0
  0
VERTEX
  5
AC
330
45
100
AcDbEntity
  8
Layer0
 62
   142
420
    38360
370
    25
100
AcDbVertex
100
AcDb2dVertex
 10
302.8595808105474
 20
161.6642246093743
 30
0.0
  0
VERTEX
  5
AD
330
45
100
AcDbEntity
  8
Layer0
 62
   142
420
    38360
370
    25
100
AcDbVertex
100
AcDb2dVertex
 10
309.9570000000003
 20
161.5
 30
0.0
  0
VERTEX
  5
AE
330
45
100
AcDbEntity
  8
Layer0
 62
   142
420
    38360
370
    25
100
AcDbVertex
100
AcDb2dVertex
 10
317.0556621093747
 20
161.6642246093743
 30
0.0
  0
VERTEX
  5
AF
330
45
100
AcDbEntity
  8
Layer0
 62
   142
420
    38360
370
    25
100
AcDbVertex
100
AcDb2dVertex
 10
324.0877031250002
 20
162.1530000000002
 30
0.0
  0
VERTEX
  5
B0
330
45
100
AcDbEntity
  8
Layer0
 62
   142
420
    38360
370
    25
100
AcDbVertex
100
AcDb2dVertex
 10
331.048517578125
 20
162.9604785156243
 30
0.0
  0
VERTEX
  5
B1
330
45
100
AcDbEntity
  8
Layer0
 62
   142
420
    38360
370
    25
100
AcDbVertex
100
AcDb2dVertex
 10
337.9334999999992
 20
164.0808125000003
 30
0.0
  0
VERTEX
  5
B2
330
45
100
AcDbEntity
  8
Layer0
 62
   142
420
    38360
370
    25
100
AcDbVertex
100
AcDb2dVertex
 10
344.7380449218745
 20
165.5081542968746
 30
0.0
  0
VERTEX
  5
B3
330
45
100
AcDbEntity
  8
Layer0
 62
   142
420
    38360
370
    25
100
AcDbVertex
100
AcDb2dVertex
 10
351.4575468750008
 20
167.2366562499992
 30
0.0
  0
VERTEX
  5
B4
330
45
100
AcDbEntity
  8
Layer0
 62
   142
420
    38360
370
    25
100
AcDbVertex
100
AcDb2dVertex
 10
358.0874003906247
 20
169.2604707031242
 30
0.0
  0
VERTEX
  5
B5
330
45
100
AcDbEntity
  8
Layer0
 62
   142
420
    38360
370
    25
100
AcDbVertex
100
AcDb2dVertex
 10
364.6229999999996
 20
171.5737499999996
 30
0.0
  0
VERTEX
  5
B6
330
45
100
AcDbEntity
  8
Layer0
 62
   142
420
    38360
370
    25
100
AcDbVertex
100
AcDb2dVertex
 10
371.0597402343756
 20
174.1706464843755
 30
0.0
  0
VERTEX
  5
B7
330
45
100
AcDbEntity
  8
Layer0
 62
   142
420
    38360
370
    25
100
AcDbVertex
100
AcDb2dVertex
 10
377.3930156250008
 20
177.0453125000004
 30
0.0
  0
VERTEX
  5
B8
330
45
100
AcDbEntity
  8
Layer0
 62
   142
420
    38360
370
    25
100
AcDbVertex
100
AcDb2dVertex
 10
383.6182207031252
 20
180.191900390626
 30
0.0
  0
VERTEX
  5
B9
330
45
100
AcDbEntity
  8
Layer0
 62
   142
420
    38360
370
    25
100
AcDbVertex
100
AcDb2dVertex
 10
389.7307500000006
 20
183.6045625000006
 30
0.0
  0
VERTEX
  5
BA
330
45
100
AcDbEntity
  8
Layer0
 62
   142
420
    38360
370
    25
100
AcDbVertex
100
AcDb2dVertex
 10
395.7259980468752
 20
187.2774511718744
 30
0.0
  0
VERTEX
  5
BB
330
45
100
AcDbEntity
  8
Layer0
 62
   142
420
    38360
370
    25
100
AcDbVertex
100
AcDb2dVertex
 10
401.5993593750009
 20
191.2047187499993
 30
0.0
  0
VERTEX
  5
BC
330
45
100
AcDbEntity
  8
Layer0
 62
   142
420
    38360
370
    25
100
AcDbVertex
100
AcDb2dVertex
 10
407.3462285156256
 20
195.3805175781254
 30
0.0
  0
VERTEX
  5
BD
330
45
100
AcDbEntity
  8
Layer0
 62
   142
420
    38360
370
    25
100
AcDbVertex
100
AcDb2dVertex
 10
412.9619999999995
 20
199.7990000000009
 30
0.0
  0
VERTEX
  5
BE
330
45
100
AcDbEntity
  8
Layer0
 62
   142
420
    38360
370
    25
100
AcDbVertex
100
AcDb2dVertex
 10
467.9169999999995
 20
199.7990000000009
 30
0.0
  0
VERTEX
  5
BF
330
45
100
AcDbEntity
  8
Layer0
 62
   142
420
    38360
370
    25
100
AcDbVertex
100
AcDb2dVertex
 10
472.4176345214837
 20
200.0851621093752
 30
0.0
  0
VERTEX
  5
C0
330
45
100
AcDbEntity
  8
Layer0
 62
   142
420
    38360
370
    25
100
AcDbVertex
100
AcDb2dVertex
 10
476.8361542968742
 20
200.9312812499993
 30
0.0
  0
VERTEX
  5
C1
330
45
100
AcDbEntity
  8
Layer0
 62
   142
420
    38360
370
    25
100
AcDbVertex
100
AcDb2dVertex
 10
481.1627961425784
 20
202.3188066406256
 30
0.0
  0
VERTEX
  5
C2
330
45
100
AcDbEntity
  8
Layer0
 62
   142
420
    38360
370
    25
100
AcDbVertex
100
AcDb2dVertex
 10
485.3877968750003
 20
204.2291874999992
 30
0.0
  0
VERTEX
  5
C3
330
45
100
AcDbEntity
  8
Layer0
 62
   142
420
    38360
370
    25
100
AcDbVertex
100
AcDb2dVertex
 10
489.5013933105474
 20
206.6438730468744
 30
0.0
  0
VERTEX
  5
C4
330
45
100
AcDbEntity
  8
Layer0
 62
   142
420
    38360
370
    25
100
AcDbVertex
100
AcDb2dVertex
 10
493.4938222656256
 20
209.5443125000002
 30
0.0
  0
VERTEX
  5
C5
330
45
100
AcDbEntity
  8
Layer0
 62
   142
420
    38360
370
    25
100
AcDbVertex
100
AcDb2dVertex
 10
497.3553205566404
 20
212.9119550781252
 30
0.0
  0
VERTEX
  5
C6
330
45
100
AcDbEntity
  8
Layer0
 62
   142
420
    38360
370
    25
100
AcDbVertex
100
AcDb2dVertex
 10
501.0761249999996
 20
216.7282500000001
 30
0.0
  0
VERTEX
  5
C7
330
45
100
AcDbEntity
  8
Layer0
 62
   142
420
    38360
370
    25
100
AcDbVertex
100
AcDb2dVertex
 10
504.6464724121088
 20
220.9746464843756
 30
0.0
  0
VERTEX
  5
C8
330
45
100
AcDbEntity
  8
Layer0
 62
   142
420
    38360
370
    25
100
AcDbVertex
100
AcDb2dVertex
 10
508.0565996093756
 20
225.6325937500005
 30
0.0
  0
VERTEX
  5
C9
330
45
100
AcDbEntity
  8
Layer0
 62
   142
420
    38360
370
    25
100
AcDbVertex
100
AcDb2dVertex
 10
511.2967434082038
 20
230.6835410156255
 30
0.0
  0
VERTEX
  5
CA
330
45
100
AcDbEntity
  8
Layer0
 62
   142
420
    38360
370
    25
100
AcDbVertex
100
AcDb2dVertex
 10
514.3571406249994
 20
236.1089374999992
 30
0.0
  0
VERTEX
  5
CB
330
45
100
AcDbEntity
  8
Layer0
 62
   142
420
    38360
370
    25
100
AcDbVertex
100
AcDb2dVertex
 10
517.2280280761715
 20
241.8902324218743
 30
0.0
  0
VERTEX
  5
CC
330
45
100
AcDbEntity
  8
Layer0
 62
   142
420
    38360
370
    25
100
AcDbVertex
100
AcDb2dVertex
 10
519.8996425781243
 20
248.0088749999995
 30
0.0
  0
VERTEX
  5
CD
330
45
100
AcDbEntity
  8
Layer0
 62
   142
420
    38360
370
    25
100
AcDbVertex
100
AcDb2dVertex
 10
522.3622209472669
 20
254.4463144531255
 30
0.0
  0
VERTEX
  5
CE
330
45
100
AcDbEntity
  8
Layer0
 62
   142
420
    38360
370
    25
100
AcDbVertex
100
AcDb2dVertex
 10
524.6059999999998
 20
261.1839999999993
 30
0.0
  0
VERTEX
  5
CF
330
45
100
AcDbEntity
  8
Layer0
 62
   142
420
    38360
370
    25
100
AcDbVertex
100
AcDb2dVertex
 10
548.8510000000006
 20
261.1839999999993
 30
0.0
  0
VERTEX
  5
D0
330
45
100
AcDbEntity
  8
Layer0
 62
   142
420
    38360
370
    25
100
AcDbVertex
100
AcDb2dVertex
 10
611.6900000000005
 20
396.5
 30
0.0
  0
VERTEX
  5
D1
330
45
100
AcDbEntity
  8
Layer0
 62
   142
420
    38360
370
    25
100
AcDbVertex
100
AcDb2dVertex
 10
548.8510000000006
 20
534.3779999999997
 30
0.0
  0
VERTEX
  5
D2
330
45
100
AcDbEntity
  8
Layer0
 62
   142
420
    38360
370
    25
100
AcDbVertex
100
AcDb2dVertex
 10
514.005000000001
 20
534.3779999999997
 30
0.0
  0
SEQEND
  5
D3
330
45
100
AcDbEntity
  8
Layer0
 62
   142
420
    38360
370
    25
  0
ENDBLK
  5
44
330
41
100
AcDbEntity
  8
0
100
AcDbBlockEnd
  0
ENDSEC
  0
SECTION
  2
ENTITIES
  0
INSERT
  5
42
330
1F
100
AcDbEntity
  8
Layer0
100
AcDbBlockReference
  2
block 2
 10
0.0
 20
0.0
 30
0.0
  0
ENDSEC
  0
SECTION
  2
OBJECTS
  0
DICTIONARY
  5
C
330
0
100
AcDbDictionary
281
     1
  3
ACAD_GROUP
350
D
  3
ACAD_LAYOUT
350
1A
  3
ACAD_MATERIAL
350
3B
  3
ACAD_MLEADERSTYLE
350
D5
  3
ACAD_MLINESTYLE
350
17
  3
ACAD_PLOTSETTINGS
350
19
  3
ACAD_PLOTSTYLENAME
350
E
  3
ACAD_TABLESTYLE
350
D4
  3
ACAD_VISUALSTYLE
350
2A
  0
SUN
  5
3F
330
29
100
AcDbSun
 90
        1
290
     0
 63
     7
421
 16777215
 40
1.0
291
     1
 91
  2455826
 92
 54000000
292
     0
 70
     2
 71
   256
280
     1
  0
DICTIONARY
  5
D
102
{ACAD_REACTORS
330
C
102
}
330
C
100
AcDbDictionary
281
     1
  0
DICTIONARY
  5
1A
102
{ACAD_REACTORS
330
C
102
}
330
C
100
AcDbDictionary
281
     1
  3
Layout1
350
1E
  3
Layout2
350
26
  3
Model
350
22
  0
DICTIONARY
  5
3B
102
{ACAD_REACTORS
330
C
102
}
330
C
100
AcDbDictionary
281
     1
  3
ByBlock
350
3D
  3
ByLayer
350
3C
  3
Global
350
3E
  0
DICTIONARY
  5
D5
102
{ACAD_REACTORS
330
C
102
}
330
C
100
AcDbDictionary
281
     1
  0
DICTIONARY
  5
17
102
{ACAD_REACTORS
330
C
102
}
330
C
100
AcDbDictionary
281
     1
  3
Standard
350
18
  0
DICTIONARY
  5
19
102
{ACAD_REACTORS
330
C
102
}
330
C
100
AcDbDictionary
281
     1
  0
ACDBDICTIONARYWDFLT
  5
E
102
{ACAD_REACTORS
330
C
102
}
330
C
100
AcDbDictionary
281
     1
  3
Normal
350
F
100
AcDbDictionaryWithDefault
340
F
  0
DICTIONARY
  5
D4
102
{ACAD_REACTORS
330
C
102
}
330
C
100
AcDbDictionary
281
     1
  0
DICTIONARY
  5
2A
102
{ACAD_REACTORS
330
C
102
}
330
C
100
AcDbDictionary
281
     1
  3
2dWireframe
350
2F
  3
3D Hidden
350
31
  3
3dWireframe
350
30
  3
Basic
350
32
  3
Brighten
350
36
  3
ColorChange
350
3A
  3
Conceptual
350
34
  3
Dim
350
35
  3
Facepattern
350
39
  3
Flat
350
2B
  3
FlatWithEdges
350
2C
  3
Gouraud
350
2D
  3
GouraudWithEdges
350
2E
  3
Linepattern
350
38
  3
Realistic
350
33
  3
Thicken
350
37
  0
LAYOUT
  5
1E
102
{ACAD_REACTORS
330
1A
102
}
330
1A
100
AcDbPlotSettings
  1

  2
none_device
  4

  6

 40
0.0
 41
0.0
 42
0.0
 43
0.0
 44
0.0
 45
0.0
 46
0.0
 47
0.0
 48
0.0
 49
0.0
140
0.0
141
0.0
142
1.0
143
1.0
 70
   688
 72
     0
 73
     0
 74
     5
  7

 75
    16
 76
     0
 77
     2
 78
   300
147
1.0
148
0.0
149
0.0
100
AcDbLayout
  1
Layout1
 70
     1
 71
     1
 10
0.0
 20
0.0
 11
12.0
 21
9.0
 12
0.0
 22
0.0
 32
0.0
 14
1.000000000000000E+20
 24
1.000000000000000E+20
 34
1.000000000000000E+20
 15
-1.000000000000000E+20
 25
-1.000000000000000E+20
 35
-1.000000000000000E+20
146
0.0
 13
0.0
 23
0.0
 33
0.0
 16
1.0
 26
0.0
 36
0.0
 17
0.0
 27
1.0
 37
0.0
 76
     0
330
1B
  0
LAYOUT
  5
26
102
{ACAD_REACTORS
330
1A
102
}
330
1A
100
AcDbPlotSettings
  1

  2
none_device
  4

  6

 40
0.0
 41
0.0
 42
0.0
 43
0.0
 44
0.0
 45
0.0
 46
0.0
 47
0.0
 48
0.0
 49
0.0
140
0.0
141
0.0
142
1.0
143
1.0
 70
   688
 72
     0
 73
     0
 74
     5
  7

 75
    16
 76
     0
 77
     2
 78
   300
147
1.0
148
0.0
149
0.0
100
AcDbLayout
  1
Layout2
 70
     1
 71
     2
 10
0.0
 20
0.0
 11
0.0
 21
0.0
 12
0.0
 22
0.0
 32
0.0
 14
0.0
 24
0.0
 34
0.0
 15
0.0
 25
0.0
 35
0.0
146
0.0
 13
0.0
 23
0.0
 33
0.0
 16
1.0
 26
0.0
 36
0.0
 17
0.0
 27
1.0
 37
0.0
 76
     0
330
23
  0
LAYOUT
  5
22
102
{ACAD_REACTORS
330
1A
102
}
330
1A
100
AcDbPlotSettings
  1

  2
none_device
  4

  6

 40
0.0
 41
0.0
 42
0.0
 43
0.0
 44
0.0
 45
0.0
 46
0.0
 47
0.0
 48
0.0
 49
0.0
140
0.0
141
0.0
142
1.0
143
1.0
 70
  1712
 72
     0
 73
     0
 74
     0
  7

 75
     0
 76
     0
 77
     2
 78
   300
147
1.0
148
0.0
149
0.0
100
AcDbLayout
  1
Model
 70
     1
 71
     0
 10
0.0
 20
0.0
 11
12.0
 21
9.0
 12
0.0
 22
0.0
 32
0.0
 14
1.000000000000000E+20
 24
1.000000000000000E+20
 34
1.000000000000000E+20
 15
-1.000000000000000E+20
 25
-1.000000000000000E+20
 35
-1.000000000000000E+20
146
0.0
 13
0.0
 23
0.0
 33
0.0
 16
1.0
 26
0.0
 36
0.0
 17
0.0
 27
1.0
 37
0.0
 76
     0
330
1F
331
29
  0
MATERIAL
  5
3D
102
{ACAD_REACTORS
330
3B
102
}
330
3B
100
AcDbMaterial
  1
ByBlock
 72
     1
 94
      127
  0
MATERIAL
  5
3C
102
{ACAD_REACTORS
330
3B
102
}
330
3B
100
AcDbMaterial
  1
ByLayer
 72
     1
 94
      127
  0
MATERIAL
  5
3E
102
{ACAD_REACTORS
330
3B
102
}
330
3B
100
AcDbMaterial
  1
Global
 72
     1
 94
      127
  0
MLINESTYLE
  5
18
102
{ACAD_REACTORS
330
17
102
}
330
17
100
AcDbMlineStyle
  2
Standard
 70
     0
  3

 62
   256
 51
90.0
 52
90.0
 71
     2
 49
0.5
 62
   256
  6
BYLAYER
 49
-0.5
 62
   256
  6
BYLAYER
  0
ACDBPLACEHOLDER
  5
F
102
{ACAD_REACTORS
330
E
102
}
330
E
  0
VISUALSTYLE
  5
2F
102
{ACAD_REACTORS
330
2A
102
}
330
2A
100
AcDbVisualStyle
  2
2dWireframe
 70
     4
177
     2
291
     0
 71
     0
176
     1
 72
     2
176
     1
 73
     0
176
     1
 90
        0
176
     1
 40
-0.6
176
     1
 41
-30.0
176
     1
 62
     5
 63
     7
421
 16777215
176
     1
 74
     1
176
     1
 91
        4
176
     1
 64
     7
176
     1
 65
   257
176
     1
 75
     1
176
     1
175
     1
176
     1
 42
1.0
176
     1
 92
        0
176
     1
 66
   257
176
     1
 43
1.0
176
     1
 76
     1
176
     1
 77
     6
176
     1
 78
     2
176
     1
 67
     7
176
     1
 79
     5
176
     1
170
     0
176
     1
171
     0
176
     1
290
     0
176
     1
 93
        1
176
     1
 44
0.0
176
     1
173
     0
176
     1
  0
VISUALSTYLE
  5
31
102
{ACAD_REACTORS
330
2A
102
}
330
2A
100
AcDbVisualStyle
  2
3D Hidden
 70
     6
177
     2
291
     0
 71
     1
176
     1
 72
     2
176
     1
 73
     2
176
     1
 90
        0
176
     1
 40
-0.6
176
     1
 41
-30.0
176
     1
 62
     5
 63
     7
421
 16777215
176
     1
 74
     2
176
     1
 91
        2
176
     1
 64
     7
176
     1
 65
   257
176
     1
 75
     2
176
     1
175
     1
176
     1
 42
40.0
176
     1
 92
        0
176
     1
 66
   257
176
     1
 43
1.0
176
     1
 76
     1
176
     1
 77
     6
176
     1
 78
     2
176
     1
 67
     7
176
     1
 79
     3
176
     1
170
     0
176
     1
171
     0
176
     1
290
     0
176
     1
 93
        1
176
     1
 44
0.0
176
     1
173
     0
176
     1
  0
VISUALSTYLE
  5
30
102
{ACAD_REACTORS
330
2A
102
}
330
2A
100
AcDbVisualStyle
  2
3dWireframe
 70
     5
177
     2
291
     0
 71
     0
176
     1
 72
     2
176
     1
 73
     0
176
     1
 90
        0
176
     1
 40
-0.6
176
     1
 41
-30.0
176
     1
 62
     5
 63
     7
421
 16777215
176
     1
 74
     1
176
     1
 91
        4
176
     1
 64
     7
176
     1
 65
   257
176
     1
 75
     1
176
     1
175
     1
176
     1
 42
1.0
176
     1
 92
        0
176
     1
 66
   257
176
     1
 43
1.0
176
     1
 76
     1
176
     1
 77
     6
176
     1
 78
     2
176
     1
 67
     7
176
     1
 79
     5
176
     1
170
     0
176
     1
171
     0
176
     1
290
     0
176
     1
 93
        1
176
     1
 44
0.0
176
     1
173
     0
176
     1
  0
VISUALSTYLE
  5
32
102
{ACAD_REACTORS
330
2A
102
}
330
2A
100
AcDbVisualStyle
  2
Basic
 70
     7
177
     2
291
     1
 71
     1
176
     1
 72
     0
176
     1
 73
     1
176
     1
 90
        0
176
     1
 40
-0.6
176
     1
 41
-30.0
176
     1
 62
     5
 63
     7
421
 16777215
176
     1
 74
     0
176
     1
 91
        4
176
     1
 64
     7
176
     1
 65
   257
176
     1
 75
     1
176
     1
175
     1
176
     1
 42
1.0
176
     1
 92
        8
176
     1
 66
     7
176
     1
 43
1.0
176
     1
 76
     1
176
     1
 77
     6
176
     1
 78
     2
176
     1
 67
     7
176
     1
 79
     5
176
     1
170
     0
176
     1
171
     0
176
     1
290
     0
176
     1
 93
        1
176
     1
 44
0.0
176
     1
173
     0
176
     1
  0
VISUALSTYLE
  5
36
102
{ACAD_REACTORS
330
2A
102
}
330
2A
100
AcDbVisualStyle
  2
Brighten
 70
    12
177
     2
291
     1
 71
     2
176
     1
 72
     2
176
     1
 73
     0
176
     1
 90
        0
176
     1
 40
-0.6
176
     1
 41
-30.0
176
     1
 62
     5
 63
     7
421
 16777215
176
     1
 74
     1
176
     1
 91
        4
176
     1
 64
     7
176
     1
 65
   257
176
     1
 75
     1
176
     1
175
     1
176
     1
 42
1.0
176
     1
 92
        8
176
     1
 66
     7
176
     1
 43
1.0
176
     1
 76
     1
176
     1
 77
     6
176
     1
 78
     2
176
     1
 67
     7
176
     1
 79
     5
176
     1
170
     0
176
     1
171
     0
176
     1
290
     0
176
     1
 93
        1
176
     1
 44
50.0
176
     1
173
     0
176
     1
  0
VISUALSTYLE
  5
3A
102
{ACAD_REACTORS
330
2A
102
}
330
2A
100
AcDbVisualStyle
  2
ColorChange
 70
    16
177
     2
291
     1
 71
     2
176
     1
 72
     2
176
     1
 73
     3
176
     1
 90
        0
176
     1
 40
-0.6
176
     1
 41
-30.0
176
     1
 62
     5
 63
     8
421
  8421504
176
     1
 74
     1
176
     1
 91
        4
176
     1
 64
     7
176
     1
 65
   257
176
     1
 75
     1
176
     1
175
     1
176
     1
 42
1.0
176
     1
 92
        8
176
     1
 66
     8
424
  8421504
176
     1
 43
1.0
176
     1
 76
     1
176
     1
 77
     6
176
     1
 78
     2
176
     1
 67
     7
176
     1
 79
     5
176
     1
170
     0
176
     1
171
     0
176
     1
290
     0
176
     1
 93
        1
176
     1
 44
0.0
176
     1
173
     0
176
     1
  0
VISUALSTYLE
  5
34
102
{ACAD_REACTORS
330
2A
102
}
330
2A
100
AcDbVisualStyle
  2
Conceptual
 70
     9
177
     2
291
     0
 71
     3
176
     1
 72
     2
176
     1
 73
     0
176
     1
 90
        0
176
     1
 40
-0.6
176
     1
 41
-30.0
176
     1
 62
     5
 63
     7
421
 16777215
176
     1
 74
     2
176
     1
 91
        2
176
     1
 64
     7
176
     1
 65
   257
176
     1
 75
     1
176
     1
175
     1
176
     1
 42
40.0
176
     1
 92
        8
176
     1
 66
     7
176
     1
 43
1.0
176
     1
 76
     1
176
     1
 77
     6
176
     1
 78
     2
176
     1
 67
     7
176
     1
 79
     3
176
     1
170
     0
176
     1
171
     0
176
     1
290
     0
176
     1
 93
        1
176
     1
 44
0.0
176
     1
173
     0
176
     1
  0
VISUALSTYLE
  5
35
102
{ACAD_REACTORS
330
2A
102
}
330
2A
100
AcDbVisualStyle
  2
Dim
 70
    11
177
     2
291
     1
 71
     2
176
     1
 72
     2
176
     1
 73
     0
176
     1
 90
        0
176
     1
 40
-0.6
176
     1
 41
-30.0
176
     1
 62
     5
 63
     7
421
 16777215
176
     1
 74
     1
176
     1
 91
        4
176
     1
 64
     7
176
     1
 65
   257
176
     1
 75
     1
176
     1
175
     1
176
     1
 42
1.0
176
     1
 92
        8
176
     1
 66
     7
176
     1
 43
1.0
176
     1
 76
     1
176
     1
 77
     6
176
     1
 78
     2
176
     1
 67
     7
176
     1
 79
     5
176
     1
170
     0
176
     1
171
     0
176
     1
290
     0
176
     1
 93
        1
176
     1
 44
-50.0
176
     1
173
     0
176
     1
  0
VISUALSTYLE
  5
39
102
{ACAD_REACTORS
330
2A
102
}
330
2A
100
AcDbVisualStyle
  2
Facepattern
 70
    15
177
     2
291
     1
 71
     2
176
     1
 72
     2
176
     1
 73
     0
176
     1
 90
        0
176
     1
 40
-0.6
176
     1
 41
-30.0
176
     1
 62
     5
 63
     7
421
 16777215
176
     1
 74
     1
176
     1
 91
        4
176
     1
 64
     7
176
     1
 65
   257
176
     1
 75
     1
176
     1
175
     1
176
     1
 42
1.0
176
     1
 92
        8
176
     1
 66
     7
176
     1
 43
1.0
176
     1
 76
     1
176
     1
 77
     6
176
     1
 78
     2
176
     1
 67
     7
176
     1
 79
     5
176
     1
170
     0
176
     1
171
     0
176
     1
290
     0
176
     1
 93
        1
176
     1
 44
0.0
176
     1
173
     0
176
     1
  0
VISUALSTYLE
  5
2B
102
{ACAD_REACTORS
330
2A
102
}
330
2A
100
AcDbVisualStyle
  2
Flat
 70
     0
177
     2
291
     1
 71
     2
176
     1
 72
     1
176
     1
 73
     1
176
     1
 90
        2
176
     1
 40
-0.6
176
     1
 41
30.0
176
     1
 62
     5
 63
     7
421
 16777215
176
     1
 74
     0
176
     1
 91
        4
176
     1
 64
     7
176
     1
 65
   257
176
     1
 75
     1
176
     1
175
     1
176
     1
 42
1.0
176
     1
 92
        8
176
     1
 66
     7
176
     1
 43
1.0
176
     1
 76
     1
176
     1
 77
     6
176
     1
 78
     2
176
     1
 67
     7
176
     1
 79
     5
176
     1
170
     0
176
     1
171
     0
176
     1
290
     0
176
     1
 93
       13
176
     1
 44
0.0
176
     1
173
     0
176
     1
  0
VISUALSTYLE
  5
2C
102
{ACAD_REACTORS
330
2A
102
}
330
2A
100
AcDbVisualStyle
  2
FlatWithEdges
 70
     1
177
     2
291
     1
 71
     2
176
     1
 72
     1
176
     1
 73
     1
176
     1
 90
        2
176
     1
 40
-0.6
176
     1
 41
30.0
176
     1
 62
     5
 63
     7
421
 16777215
176
     1
 74
     1
176
     1
 91
        4
176
     1
 64
     7
176
     1
 65
   257
176
     1
 75
     1
176
     1
175
     1
176
     1
 42
1.0
176
     1
 92
        0
176
     1
 66
   257
176
     1
 43
1.0
176
     1
 76
     1
176
     1
 77
     6
176
     1
 78
     2
176
     1
 67
     7
176
     1
 79
     5
176
     1
170
     0
176
     1
171
     0
176
     1
290
     0
176
     1
 93
       13
176
     1
 44
0.0
176
     1
173
     0
176
     1
  0
VISUALSTYLE
  5
2D
102
{ACAD_REACTORS
330
2A
102
}
330
2A
100
AcDbVisualStyle
  2
Gouraud
 70
     2
177
     2
291
     1
 71
     2
176
     1
 72
     2
176
     1
 73
     1
176
     1
 90
        2
176
     1
 40
-0.6
176
     1
 41
30.0
176
     1
 62
     5
 63
     7
421
 16777215
176
     1
 74
     0
176
     1
 91
        4
176
     1
 64
     7
176
     1
 65
   257
176
     1
 75
     1
176
     1
175
     1
176
     1
 42
1.0
176
     1
 92
        0
176
     1
 66
     7
176
     1
 43
1.0
176
     1
 76
     1
176
     1
 77
     6
176
     1
 78
     2
176
     1
 67
     7
176
     1
 79
     5
176
     1
170
     0
176
     1
171
     0
176
     1
290
     0
176
     1
 93
       13
176
     1
 44
0.0
176
     1
173
     0
176
     1
  0
VISUALSTYLE
  5
2E
102
{ACAD_REACTORS
330
2A
102
}
330
2A
100
AcDbVisualStyle
  2
GouraudWithEdges
 70
     3
177
     2
291
     1
 71
     2
176
     1
 72
     2
176
     1
 73
     1
176
     1
 90
        2
176
     1
 40
-0.6
176
     1
 41
30.0
176
     1
 62
     5
 63
     7
421
 16777215
176
     1
 74
     1
176
     1
 91
        4
176
     1
 64
     7
176
     1
 65
   257
176
     1
 75
     1
176
     1
175
     1
176
     1
 42
1.0
176
     1
 92
        0
176
     1
 66
   257
176
     1
 43
1.0
176
     1
 76
     1
176
     1
 77
     6
176
     1
 78
     2
176
     1
 67
     7
176
     1
 79
     5
176
     1
170
     0
176
     1
171
     0
176
     1
290
     0
176
     1
 93
       13
176
     1
 44
0.0
176
     1
173
     0
176
     1
  0
VISUALSTYLE
  5
38
102
{ACAD_REACTORS
330
2A
102
}
330
2A
100
AcDbVisualStyle
  2
Linepattern
 70
    14
177
     2
291
     1
 71
     2
176
     1
 72
     2
176
     1
 73
     0
176
     1
 90
        0
176
     1
 40
-0.6
176
     1
 41
-30.0
176
     1
 62
     5
 63
     7
421
 16777215
176
     1
 74
     1
176
     1
 91
        4
176
     1
 64
     7
176
     1
 65
   257
176
     1
 75
     7
176
     1
175
     7
176
     1
 42
1.0
176
     1
 92
        8
176
     1
 66
     7
176
     1
 43
1.0
176
     1
 76
     1
176
     1
 77
     6
176
     1
 78
     2
176
     1
 67
     7
176
     1
 79
     5
176
     1
170
     0
176
     1
171
     0
176
     1
290
     0
176
     1
 93
        1
176
     1
 44
0.0
176
     1
173
     0
176
     1
  0
VISUALSTYLE
  5
33
102
{ACAD_REACTORS
330
2A
102
}
330
2A
100
AcDbVisualStyle
  2
Realistic
 70
     8
177
     2
291
     0
 71
     2
176
     1
 72
     2
176
     1
 73
     0
176
     1
 90
        0
176
     1
 40
-0.6
176
     1
 41
-30.0
176
     1
 62
     5
 63
     7
421
 16777215
176
     1
 74
     1
176
     1
 91
        0
176
     1
 64
     7
176
     1
 65
   257
176
     1
 75
     1
176
     1
175
     1
176
     1
 42
1.0
176
     1
 92
        8
176
     1
 66
     8
424
  7895160
176
     1
 43
1.0
176
     1
 76
     1
176
     1
 77
     6
176
     1
 78
     2
176
     1
 67
     7
176
     1
 79
     5
176
     1
170
     0
176
     1
171
     0
176
     1
290
     0
176
     1
 93
       13
176
     1
 44
0.0
176
     1
173
     0
176
     1
  0
VISUALSTYLE
  5
37
102
{ACAD_REACTORS
330
2A
102
}
330
2A
100
AcDbVisualStyle
  2
Thicken
 70
    13
177
     2
291
     1
 71
     2
176
     1
 72
     2
176
     1
 73
     0
176
     1
 90
        0
176
     1
 40
-0.6
176
     1
 41
-30.0
176
     1
 62
     5
 63
     7
421
 16777215
176
     1
 74
     1
176
     1
 91
        4
176
     1
 64
     7
176
     1
 65
   257
176
     1
 75
     1
176
     1
175
     1
176
     1
 42
1.0
176
     1
 92
       12
176
     1
 66
     7
176
     1
 43
1.0
176
     1
 76
     1
176
     1
 77
     6
176
     1
 78
     2
176
     1
 67
     7
176
     1
 79
     5
176
     1
170
     0
176
     1
171
     0
176
     1
290
     0
176
     1
 93
        1
176
     1
 44
0.0
176
     1
173
     0
176
     1
  0
ENDSEC
  0
EOF
